<?xml version="1.0" encoding="UTF-8" standalone="no"?>
<svg
   xmlns:dc="http://purl.org/dc/elements/1.1/"
   xmlns:cc="http://creativecommons.org/ns#"
   xmlns:rdf="http://www.w3.org/1999/02/22-rdf-syntax-ns#"
   xmlns:svg="http://www.w3.org/2000/svg"
   xmlns="http://www.w3.org/2000/svg"
   xmlns:sodipodi="http://sodipodi.sourceforge.net/DTD/sodipodi-0.dtd"
   xmlns:inkscape="http://www.inkscape.org/namespaces/inkscape"
   width="210mm"
   height="297mm"
   viewBox="0 0 210 297"
   version="1.1"
   id="svg8"
   inkscape:version="1.0.1 (3bc2e813f5, 2020-09-07)"
   sodipodi:docname="boi.svg"
   inkscape:export-filename="C:\Users\Loula\Desktop\image.png"
   inkscape:export-xdpi="387.07959"
   inkscape:export-ydpi="387.07959">
  <defs
     id="defs2" />
  <sodipodi:namedview
     id="base"
     pagecolor="#ffffff"
     bordercolor="#666666"
     borderopacity="1.0"
     inkscape:pageopacity="0.0"
     inkscape:pageshadow="2"
     inkscape:zoom="2.8"
     inkscape:cx="331.27281"
     inkscape:cy="165.60067"
     inkscape:document-units="mm"
     inkscape:current-layer="layer1"
     inkscape:document-rotation="0"
     showgrid="false"
     inkscape:window-width="1920"
     inkscape:window-height="986"
     inkscape:window-x="-11"
     inkscape:window-y="-11"
     inkscape:window-maximized="1" />
  <metadata
     id="metadata5">
    <rdf:RDF>
      <cc:Work
         rdf:about="">
        <dc:format>image/svg+xml</dc:format>
        <dc:type
           rdf:resource="http://purl.org/dc/dcmitype/StillImage" />
        <dc:title />
      </cc:Work>
    </rdf:RDF>
  </metadata>
  <g
     inkscape:label="Calque 1"
     inkscape:groupmode="layer"
     id="layer1">
    <path
       id="path902"
       style="fill:#393469;fill-opacity:1;stroke:none;stroke-width:2.75335;stop-color:#000000"
       d="m 97.44738,62.933037 h 7.51148 c 2.47375,0 3.629,1.800158 4.46524,3.76119 l 12.47321,29.250435 c 0.83624,1.961028 -0.1022,4.670738 -2.57535,4.716328 l -34.536782,0.63676 c -2.473151,0.0456 -4.084814,-2.254077 -3.331312,-4.238758 L 92.98214,66.694227 c 0.753504,-1.984682 1.991497,-3.76119 4.46524,-3.76119 z"
       sodipodi:nodetypes="sssssssss"
       inkscape:export-filename="C:\Users\Loula\Desktop\boy.png"
       inkscape:export-xdpi="387.07959"
       inkscape:export-ydpi="387.07959" />
    <path
       id="path955-0"
       style="fill:#63452c;stroke:none;stroke-width:0.297885px;stroke-linecap:butt;stroke-linejoin:miter;stroke-opacity:1"
       inkscape:transform-center-x="0.56342915"
       inkscape:transform-center-y="-12.866374"
       d="m 106.97524,35.356347 c 13.77094,-0.641979 17.97527,25.022414 17.97527,25.022414 0,0 -6.53614,-1.532158 -7.12465,-6.947263 -1.58758,3.678287 -0.14433,10.046549 -0.14433,10.046549 0,0 -12.06885,-7.06472 -14.48137,-10.247582 -1.80111,3.011599 -17.331682,11.075778 -17.331682,11.075778 0,0 -5.049671,-4.710976 0.543033,-10.402131 -4.754843,4.841844 -2.743649,4.563571 -7.536649,7.353636 -1.77255,-10.544486 2.219389,-18.728114 15.072389,-21.921633 2.73481,-0.735261 10.143189,-3.880317 13.027989,-3.979768 z"
       sodipodi:nodetypes="cccccccccc"
       inkscape:export-filename="C:\Users\Loula\Desktop\boy.png"
       inkscape:export-xdpi="387"
       inkscape:export-ydpi="387" />
    <path
       id="path904"
       style="fill:#f7fcff;fill-opacity:1;stroke:none;stroke-width:2.59195;stop-color:#000000"
       inkscape:transform-center-x="0.4614943"
       inkscape:transform-center-y="2.1821226"
       d="m 110.27876,66.234195 -0.48634,-0.817029 c -0.2134,-0.358522 -0.44734,-0.709621 -0.71738,-1.034704 -0.27005,-0.325084 -0.57667,-0.624066 -0.93524,-0.878251 -0.17928,-0.127094 -0.37125,-0.243062 -0.57865,-0.345406 -0.20739,-0.102343 -0.42989,-0.191243 -0.66938,-0.264154 -0.23949,-0.07291 -0.49614,-0.12975 -0.77171,-0.168548 -0.27557,-0.03879 -0.57002,-0.05933 -0.88565,-0.05933 h -7.667538 c -0.315634,0 -0.611628,0.02022 -0.889341,0.05857 -0.277714,0.03836 -0.536838,0.0948 -0.779625,0.167034 -0.242788,0.07224 -0.469071,0.160254 -0.67993,0.261887 -0.210857,0.101635 -0.406752,0.216963 -0.588676,0.343516 -0.363847,0.253104 -0.672311,0.551601 -0.938398,0.877495 -0.266084,0.325895 -0.489753,0.67904 -0.682039,1.041885 l -1.325572,2.502108 c 3.829574,4.2988 8.613419,8.89824 9.813879,8.844487 1.27715,-0.05719 5.67637,-5.705673 8.78159,-10.529566 z"
       inkscape:export-filename="C:\Users\Loula\Desktop\boy.png"
       inkscape:export-xdpi="387.07959"
       inkscape:export-ydpi="387.07959" />
    <ellipse
       style="fill:#fbf2d6;fill-opacity:1;stroke:none;stroke-width:3;stop-color:#000000"
       id="path960"
       cx="75.971367"
       cy="46.404671"
       rx="6.9490075"
       ry="6.11379"
       inkscape:export-filename="C:\Users\Loula\Desktop\boy.png"
       inkscape:export-xdpi="387"
       inkscape:export-ydpi="387" />
    <ellipse
       style="fill:#fbf2d6;stroke:none;stroke-width:3;stop-color:#000000;fill-opacity:1"
       id="path833"
       cx="101.39211"
       cy="43.183777"
       rx="23.529018"
       ry="23.340031"
       inkscape:export-filename="C:\Users\Loula\Desktop\boy.png"
       inkscape:export-xdpi="387.07959"
       inkscape:export-ydpi="387.07959" />
    <ellipse
       style="fill:#986a44;fill-opacity:1;stroke:none;stroke-width:3;stop-color:#000000"
       id="path880"
       cx="89.107887"
       cy="47.152527"
       rx="4.2522321"
       ry="3.8742559"
       inkscape:export-filename="C:\Users\Loula\Desktop\boy.png"
       inkscape:export-xdpi="387.07959"
       inkscape:export-ydpi="387.07959" />
    <ellipse
       style="fill:#fbf2d6;fill-opacity:1;stroke:none;stroke-width:3;stop-color:#000000"
       id="path960-4"
       cx="126.01759"
       cy="47.908062"
       rx="6.9490075"
       ry="6.11379"
       inkscape:export-filename="C:\Users\Loula\Desktop\boy.png"
       inkscape:export-xdpi="387"
       inkscape:export-ydpi="387" />
    <ellipse
       style="fill:#986a44;fill-opacity:1;stroke:none;stroke-width:3;stop-color:#000000"
       id="path880-3"
       cx="113.39286"
       cy="47.813992"
       rx="4.2522321"
       ry="3.8742561"
       inkscape:export-filename="C:\Users\Loula\Desktop\boy.png"
       inkscape:export-xdpi="387.07959"
       inkscape:export-ydpi="387.07959" />
    <path
       sodipodi:type="star"
       style="fill:#f08062;fill-opacity:1;stroke:none;stroke-width:3;stop-color:#000000"
       id="path897"
       sodipodi:sides="3"
       sodipodi:cx="100.54167"
       sodipodi:cy="57.074406"
       sodipodi:r1="4.2259021"
       sodipodi:r2="2.112951"
       sodipodi:arg1="0.46364761"
       sodipodi:arg2="1.5108452"
       inkscape:flatsided="true"
       inkscape:rounded="0.08"
       inkscape:randomized="0"
       d="m 104.32143,58.964287 c -0.26187,0.523739 -6.983687,0.927203 -7.306324,0.438548 -0.322637,-0.488655 2.688864,-6.511656 3.273374,-6.546739 0.5845,-0.03508 4.29482,5.584451 4.03295,6.108191 z"
       inkscape:transform-center-x="1.2607329"
       inkscape:transform-center-y="5.6020294"
       inkscape:export-filename="C:\Users\Loula\Desktop\boy.png"
       inkscape:export-xdpi="387.07959"
       inkscape:export-ydpi="387.07959"
       transform="rotate(3.3119919,98.540428,63.712272)" />
    <ellipse
       style="fill:#f7fcff;fill-opacity:1;stroke:none;stroke-width:3;stop-color:#000000"
       id="path912"
       cx="105.15729"
       cy="83.556816"
       rx="1.3229166"
       ry="1.4174107"
       inkscape:export-filename="C:\Users\Loula\Desktop\boy.png"
       inkscape:export-xdpi="387.07959"
       inkscape:export-ydpi="387.07959" />
    <ellipse
       style="fill:#f7fcff;fill-opacity:1;stroke:none;stroke-width:3;stop-color:#000000"
       id="path912-9"
       cx="104.97012"
       cy="88.132126"
       rx="1.3229166"
       ry="1.4174107"
       inkscape:export-filename="C:\Users\Loula\Desktop\boy.png"
       inkscape:export-xdpi="387.07959"
       inkscape:export-ydpi="387.07959" />
    <path
       id="path955"
       style="fill:#63452c;stroke:none;stroke-width:0.269127px;stroke-linecap:butt;stroke-linejoin:miter;stroke-opacity:1"
       d="m 102.57005,19.362922 c -10.811921,-0.607584 -21.455661,7.079445 -24.067611,17.662685 -0.431992,1.70091 -1.463489,4.91972 1.072528,2.817343 3.128802,-1.666916 6.136127,-3.667353 8.533472,-6.30907 1.272046,3.745631 3.659968,7.022317 6.485049,9.748498 2.889057,-2.415055 5.432942,-5.269061 7.366812,-8.50996 1.3325,2.985204 2.99482,7.055053 5.40972,8.679735 3.20178,-2.052105 6.0937,-4.700168 8.04868,-7.993816 2.44737,4.161021 6.10488,7.436255 9.94647,10.277854 1.35127,-10.41852 -5.20986,-21.172201 -15.05508,-24.769192 -2.4645,-0.967663 -5.11094,-1.48966 -7.74004,-1.604077 z"
       inkscape:transform-center-x="-0.45166616"
       inkscape:transform-center-y="-13.100772"
       inkscape:export-filename="C:\Users\Loula\Desktop\boy.png"
       inkscape:export-xdpi="387"
       inkscape:export-ydpi="387" />
  </g>
</svg>
