<?xml version="1.0" encoding="UTF-8" standalone="no"?>
<svg
   xmlns:dc="http://purl.org/dc/elements/1.1/"
   xmlns:cc="http://creativecommons.org/ns#"
   xmlns:rdf="http://www.w3.org/1999/02/22-rdf-syntax-ns#"
   xmlns:svg="http://www.w3.org/2000/svg"
   xmlns="http://www.w3.org/2000/svg"
   xmlns:sodipodi="http://sodipodi.sourceforge.net/DTD/sodipodi-0.dtd"
   xmlns:inkscape="http://www.inkscape.org/namespaces/inkscape"
   width="210mm"
   height="297mm"
   viewBox="0 0 210 297"
   version="1.1"
   id="svg8"
   inkscape:version="1.0.1 (3bc2e813f5, 2020-09-07)"
   sodipodi:docname="Main.svg">
  <defs
     id="defs2" />
  <sodipodi:namedview
     id="base"
     pagecolor="#ffffff"
     bordercolor="#666666"
     borderopacity="1.0"
     inkscape:pageopacity="0.0"
     inkscape:pageshadow="2"
     inkscape:zoom="1.979899"
     inkscape:cx="386.01261"
     inkscape:cy="227.44275"
     inkscape:document-units="mm"
     inkscape:current-layer="layer1"
     inkscape:document-rotation="0"
     showgrid="false"
     inkscape:window-width="1920"
     inkscape:window-height="986"
     inkscape:window-x="-11"
     inkscape:window-y="-11"
     inkscape:window-maximized="1" />
  <metadata
     id="metadata5">
    <rdf:RDF>
      <cc:Work
         rdf:about="">
        <dc:format>image/svg+xml</dc:format>
        <dc:type
           rdf:resource="http://purl.org/dc/dcmitype/StillImage" />
        <dc:title></dc:title>
      </cc:Work>
    </rdf:RDF>
  </metadata>
  <g
     inkscape:label="Calque 1"
     inkscape:groupmode="layer"
     id="layer1">
    <path
       id="path902"
       style="fill:#393469;fill-opacity:1;stroke:none;stroke-width:2.75335;stop-color:#000000"
       d="m 97.44738,62.933037 h 7.51148 c 2.47375,0 3.629,1.800158 4.46524,3.76119 l 12.47321,29.250435 c 0.83624,1.961028 -0.1022,4.670738 -2.57535,4.716328 l -34.536782,0.63676 c -2.473151,0.0456 -4.084814,-2.254077 -3.331312,-4.238758 L 92.98214,66.694227 c 0.753504,-1.984682 1.991497,-3.76119 4.46524,-3.76119 z"
       sodipodi:nodetypes="sssssssss" />
    <path
       id="path904"
       style="fill:#f7fcff;fill-opacity:1;stroke:none;stroke-width:3.06225;stop-color:#000000"
       inkscape:transform-center-x="0.4614943"
       inkscape:transform-center-y="3.0458414"
       d="m 110.27876,67.646243 -0.48634,-1.140423 c -0.2134,-0.500432 -0.44734,-0.990501 -0.71738,-1.444258 -0.27005,-0.453758 -0.57667,-0.871082 -0.93524,-1.225877 -0.17928,-0.1774 -0.37125,-0.339271 -0.57865,-0.482124 -0.20739,-0.142852 -0.42989,-0.26694 -0.66938,-0.368711 -0.23949,-0.101772 -0.49614,-0.181106 -0.77171,-0.235261 -0.27557,-0.05415 -0.57002,-0.08282 -0.88565,-0.08282 h -7.667538 c -0.315634,0 -0.611628,0.02822 -0.889341,0.08176 -0.277714,0.05354 -0.536838,0.13232 -0.779625,0.233149 -0.242788,0.100829 -0.469071,0.223685 -0.67993,0.365546 -0.210857,0.141864 -0.406752,0.302841 -0.588676,0.479485 -0.363847,0.353287 -0.672311,0.769934 -0.938398,1.224823 -0.266084,0.45489 -0.489753,0.947816 -0.682039,1.454281 l -1.325572,3.492485 c 3.829574,6.000337 8.613419,12.420313 9.813879,12.345284 1.27715,-0.07982 5.67637,-7.964075 8.78159,-14.697346 z" />
    <ellipse
       style="fill:#fbf2d6;stroke:none;stroke-width:3;stop-color:#000000;fill-opacity:1"
       id="path833"
       cx="101.39211"
       cy="43.183777"
       rx="23.529018"
       ry="23.340031" />
    <ellipse
       style="fill:#0b0a09;fill-opacity:1;stroke:none;stroke-width:3;stop-color:#000000"
       id="path835"
       cx="80.225449"
       cy="21.922617"
       rx="12.756697"
       ry="12.851191" />
    <path
       id="path862"
       style="fill:#0b0a09;fill-opacity:1;stroke:#000000;stroke-width:0.999999px;stroke-linecap:butt;stroke-linejoin:miter;stroke-opacity:1"
       d="M 471.07812 176.82422 A 88.928572 88.21429 0 0 0 471.11914 176.5625 A 88.928572 88.21429 0 0 0 471.23633 175.7832 A 88.928572 88.21429 0 0 0 471.3457 175.00195 A 88.928572 88.21429 0 0 0 471.44727 174.2207 A 88.928572 88.21429 0 0 0 471.54297 173.4375 A 88.928572 88.21429 0 0 0 471.63281 172.6543 A 88.928572 88.21429 0 0 0 471.71289 171.87109 A 88.928572 88.21429 0 0 0 471.78906 171.08594 A 88.928572 88.21429 0 0 0 471.85547 170.30078 A 88.928572 88.21429 0 0 0 471.91602 169.51367 A 88.928572 88.21429 0 0 0 471.96875 168.72852 A 88.928572 88.21429 0 0 0 472.01562 167.94141 A 88.928572 88.21429 0 0 0 472.05469 167.1543 A 88.928572 88.21429 0 0 0 472.08594 166.36719 A 88.928572 88.21429 0 0 0 472.11133 165.57812 A 88.928572 88.21429 0 0 0 472.12891 164.79102 A 88.928572 88.21429 0 0 0 472.13867 164.00195 A 88.928572 88.21429 0 0 0 472.14258 163.21484 A 88.928572 88.21429 0 0 0 472.14062 162.58203 A 88.928572 88.21429 0 0 0 472.13086 161.79297 A 88.928572 88.21429 0 0 0 472.11523 161.00586 A 88.928572 88.21429 0 0 0 472.0918 160.2168 A 88.928572 88.21429 0 0 0 472.06055 159.42969 A 88.928572 88.21429 0 0 0 472.02344 158.64258 A 88.928572 88.21429 0 0 0 471.97852 157.85547 A 88.928572 88.21429 0 0 0 471.92773 157.06836 A 88.928572 88.21429 0 0 0 471.86719 156.2832 A 88.928572 88.21429 0 0 0 471.80273 155.49805 A 88.928572 88.21429 0 0 0 471.72852 154.71289 A 88.928572 88.21429 0 0 0 471.64844 153.92773 A 88.928572 88.21429 0 0 0 471.5625 153.14453 A 88.928572 88.21429 0 0 0 471.4668 152.36328 A 88.928572 88.21429 0 0 0 471.36523 151.58008 A 88.928572 88.21429 0 0 0 471.25781 150.80078 A 88.928572 88.21429 0 0 0 471.14258 150.01953 A 88.928572 88.21429 0 0 0 471.01953 149.24219 A 88.928572 88.21429 0 0 0 470.89062 148.46289 A 88.928572 88.21429 0 0 0 470.75391 147.6875 A 88.928572 88.21429 0 0 0 470.61133 146.91211 A 88.928572 88.21429 0 0 0 470.46094 146.13867 A 88.928572 88.21429 0 0 0 470.30273 145.36523 A 88.928572 88.21429 0 0 0 470.13867 144.59375 A 88.928572 88.21429 0 0 0 469.96875 143.82422 A 88.928572 88.21429 0 0 0 469.78906 143.05664 A 88.928572 88.21429 0 0 0 469.60547 142.28906 A 88.928572 88.21429 0 0 0 469.41211 141.52539 A 88.928572 88.21429 0 0 0 469.21484 140.76172 A 88.928572 88.21429 0 0 0 469.00781 140 A 88.928572 88.21429 0 0 0 468.79688 139.24023 A 88.928572 88.21429 0 0 0 468.57617 138.48438 A 88.928572 88.21429 0 0 0 468.34961 137.72852 A 88.928572 88.21429 0 0 0 468.11719 136.97461 A 88.928572 88.21429 0 0 0 467.87695 136.22266 A 88.928572 88.21429 0 0 0 467.63086 135.47266 A 88.928572 88.21429 0 0 0 467.37891 134.72656 A 88.928572 88.21429 0 0 0 467.11719 133.98242 A 88.928572 88.21429 0 0 0 466.85156 133.23828 A 88.928572 88.21429 0 0 0 466.57812 132.5 A 88.928572 88.21429 0 0 0 466.29883 131.76172 A 88.928572 88.21429 0 0 0 466.01172 131.02539 A 88.928572 88.21429 0 0 0 465.71875 130.29297 A 88.928572 88.21429 0 0 0 465.41797 129.56445 A 88.928572 88.21429 0 0 0 465.11133 128.83594 A 88.928572 88.21429 0 0 0 464.79883 128.11133 A 88.928572 88.21429 0 0 0 464.48047 127.39062 A 88.928572 88.21429 0 0 0 464.1543 126.67188 A 88.928572 88.21429 0 0 0 463.82227 125.95508 A 88.928572 88.21429 0 0 0 463.48242 125.24219 A 88.928572 88.21429 0 0 0 463.13672 124.5332 A 88.928572 88.21429 0 0 0 462.78516 123.82617 A 88.928572 88.21429 0 0 0 462.42773 123.12305 A 88.928572 88.21429 0 0 0 462.06445 122.42188 A 88.928572 88.21429 0 0 0 461.69336 121.72461 A 88.928572 88.21429 0 0 0 461.31641 121.03125 A 88.928572 88.21429 0 0 0 460.93359 120.33984 A 88.928572 88.21429 0 0 0 460.54297 119.65234 A 88.928572 88.21429 0 0 0 460.14844 118.96875 A 88.928572 88.21429 0 0 0 459.74609 118.28906 A 88.928572 88.21429 0 0 0 459.33984 117.61328 A 88.928572 88.21429 0 0 0 458.92578 116.93945 A 88.928572 88.21429 0 0 0 458.50586 116.27148 A 88.928572 88.21429 0 0 0 458.08008 115.60547 A 88.928572 88.21429 0 0 0 457.64844 114.94336 A 88.928572 88.21429 0 0 0 457.21094 114.28516 A 88.928572 88.21429 0 0 0 456.76562 113.63281 A 88.928572 88.21429 0 0 0 456.31641 112.98242 A 88.928572 88.21429 0 0 0 455.86133 112.33594 A 88.928572 88.21429 0 0 0 455.40039 111.69336 A 88.928572 88.21429 0 0 0 454.93359 111.05664 A 88.928572 88.21429 0 0 0 454.46094 110.42383 A 88.928572 88.21429 0 0 0 453.98242 109.79297 A 88.928572 88.21429 0 0 0 453.49805 109.16797 A 88.928572 88.21429 0 0 0 453.00781 108.54688 A 88.928572 88.21429 0 0 0 452.51367 107.93164 A 88.928572 88.21429 0 0 0 452.01367 107.31836 A 88.928572 88.21429 0 0 0 451.50586 106.71094 A 88.928572 88.21429 0 0 0 450.99414 106.10938 A 88.928572 88.21429 0 0 0 450.47852 105.50977 A 88.928572 88.21429 0 0 0 449.95508 104.91602 A 88.928572 88.21429 0 0 0 449.42773 104.32812 A 88.928572 88.21429 0 0 0 448.89453 103.74219 A 88.928572 88.21429 0 0 0 448.35547 103.16211 A 88.928572 88.21429 0 0 0 447.8125 102.58789 A 88.928572 88.21429 0 0 0 447.26367 102.01758 A 88.928572 88.21429 0 0 0 446.71094 101.45312 A 88.928572 88.21429 0 0 0 446.15234 100.89258 A 88.928572 88.21429 0 0 0 445.58789 100.33789 A 88.928572 88.21429 0 0 0 445.01953 99.787109 A 88.928572 88.21429 0 0 0 444.44531 99.242188 A 88.928572 88.21429 0 0 0 443.86719 98.701172 A 88.928572 88.21429 0 0 0 443.2832 98.166016 A 88.928572 88.21429 0 0 0 442.69531 97.636719 A 88.928572 88.21429 0 0 0 442.10156 97.111328 A 88.928572 88.21429 0 0 0 441.50391 96.591797 A 88.928572 88.21429 0 0 0 440.90234 96.078125 A 88.928572 88.21429 0 0 0 440.29492 95.570312 A 88.928572 88.21429 0 0 0 439.68359 95.066406 A 88.928572 88.21429 0 0 0 439.06641 94.568359 A 88.928572 88.21429 0 0 0 438.44727 94.076172 A 88.928572 88.21429 0 0 0 437.82227 93.589844 A 88.928572 88.21429 0 0 0 437.19141 93.109375 A 88.928572 88.21429 0 0 0 436.55859 92.632812 A 88.928572 88.21429 0 0 0 435.91992 92.164062 A 88.928572 88.21429 0 0 0 435.2793 91.699219 A 88.928572 88.21429 0 0 0 434.63281 91.240234 A 88.928572 88.21429 0 0 0 433.98242 90.787109 A 88.928572 88.21429 0 0 0 433.32812 90.339844 A 88.928572 88.21429 0 0 0 432.66992 89.898438 A 88.928572 88.21429 0 0 0 432.00781 89.462891 A 88.928572 88.21429 0 0 0 431.33984 89.035156 A 88.928572 88.21429 0 0 0 430.66992 88.611328 A 88.928572 88.21429 0 0 0 429.99609 88.193359 A 88.928572 88.21429 0 0 0 429.31836 87.78125 A 88.928572 88.21429 0 0 0 428.63867 87.375 A 88.928572 88.21429 0 0 0 427.95312 86.976562 A 88.928572 88.21429 0 0 0 427.26367 86.582031 A 88.928572 88.21429 0 0 0 426.57227 86.195312 A 88.928572 88.21429 0 0 0 425.87695 85.814453 A 88.928572 88.21429 0 0 0 425.17773 85.439453 A 88.928572 88.21429 0 0 0 424.47656 85.070312 A 88.928572 88.21429 0 0 0 423.76953 84.707031 A 88.928572 88.21429 0 0 0 423.0625 84.351562 A 88.928572 88.21429 0 0 0 422.34961 84.001953 A 88.928572 88.21429 0 0 0 421.63477 83.658203 A 88.928572 88.21429 0 0 0 420.91602 83.320312 A 88.928572 88.21429 0 0 0 420.19531 82.990234 A 88.928572 88.21429 0 0 0 419.4707 82.664062 A 88.928572 88.21429 0 0 0 418.74414 82.345703 A 88.928572 88.21429 0 0 0 418.01367 82.035156 A 88.928572 88.21429 0 0 0 417.28125 81.730469 A 88.928572 88.21429 0 0 0 416.54688 81.431641 A 88.928572 88.21429 0 0 0 415.80859 81.138672 A 88.928572 88.21429 0 0 0 415.06836 80.853516 A 88.928572 88.21429 0 0 0 414.32422 80.574219 A 88.928572 88.21429 0 0 0 413.58008 80.302734 A 88.928572 88.21429 0 0 0 412.83203 80.035156 A 88.928572 88.21429 0 0 0 412.08008 79.777344 A 88.928572 88.21429 0 0 0 411.32812 79.523438 A 88.928572 88.21429 0 0 0 410.57422 79.279297 A 88.928572 88.21429 0 0 0 409.81641 79.039062 A 88.928572 88.21429 0 0 0 409.05664 78.806641 A 88.928572 88.21429 0 0 0 408.29492 78.582031 A 88.928572 88.21429 0 0 0 407.5332 78.363281 A 88.928572 88.21429 0 0 0 406.76758 78.150391 A 88.928572 88.21429 0 0 0 406 77.945312 A 88.928572 88.21429 0 0 0 405.23047 77.746094 A 88.928572 88.21429 0 0 0 404.46094 77.554688 A 88.928572 88.21429 0 0 0 403.6875 77.369141 A 88.928572 88.21429 0 0 0 402.91406 77.191406 A 88.928572 88.21429 0 0 0 402.13867 77.019531 A 88.928572 88.21429 0 0 0 401.36133 76.855469 A 88.928572 88.21429 0 0 0 400.58203 76.699219 A 88.928572 88.21429 0 0 0 399.80273 76.548828 A 88.928572 88.21429 0 0 0 399.02148 76.404297 A 88.928572 88.21429 0 0 0 398.23828 76.267578 A 88.928572 88.21429 0 0 0 397.45508 76.138672 A 88.928572 88.21429 0 0 0 396.66992 76.015625 A 88.928572 88.21429 0 0 0 395.88477 75.900391 A 88.928572 88.21429 0 0 0 395.09766 75.791016 A 88.928572 88.21429 0 0 0 394.30859 75.689453 A 88.928572 88.21429 0 0 0 393.52148 75.59375 A 88.928572 88.21429 0 0 0 392.73047 75.505859 A 88.928572 88.21429 0 0 0 391.94141 75.425781 A 88.928572 88.21429 0 0 0 391.15039 75.351562 A 88.928572 88.21429 0 0 0 390.35742 75.285156 A 88.928572 88.21429 0 0 0 389.56641 75.224609 A 88.928572 88.21429 0 0 0 388.77344 75.171875 A 88.928572 88.21429 0 0 0 387.97852 75.126953 A 88.928572 88.21429 0 0 0 387.18555 75.087891 A 88.928572 88.21429 0 0 0 386.39258 75.056641 A 88.928572 88.21429 0 0 0 385.59766 75.03125 A 88.928572 88.21429 0 0 0 384.80273 75.013672 A 88.928572 88.21429 0 0 0 384.00977 75.003906 A 88.928572 88.21429 0 0 0 383.21484 75 A 88.928572 88.21429 0 0 0 382.57617 75.001953 A 88.928572 88.21429 0 0 0 381.78125 75.011719 A 88.928572 88.21429 0 0 0 380.98828 75.027344 A 88.928572 88.21429 0 0 0 380.19336 75.050781 A 88.928572 88.21429 0 0 0 379.39844 75.082031 A 88.928572 88.21429 0 0 0 378.60547 75.119141 A 88.928572 88.21429 0 0 0 377.8125 75.162109 A 88.928572 88.21429 0 0 0 377.01953 75.214844 A 88.928572 88.21429 0 0 0 376.22656 75.273438 A 88.928572 88.21429 0 0 0 375.43555 75.337891 A 88.928572 88.21429 0 0 0 374.64453 75.410156 A 88.928572 88.21429 0 0 0 373.85352 75.490234 A 88.928572 88.21429 0 0 0 373.06445 75.576172 A 88.928572 88.21429 0 0 0 372.27539 75.669922 A 88.928572 88.21429 0 0 0 371.48633 75.769531 A 88.928572 88.21429 0 0 0 370.69922 75.876953 A 88.928572 88.21429 0 0 0 369.91406 75.992188 A 88.928572 88.21429 0 0 0 369.12891 76.113281 A 88.928572 88.21429 0 0 0 368.34375 76.242188 A 88.928572 88.21429 0 0 0 367.56055 76.376953 A 88.928572 88.21429 0 0 0 366.7793 76.519531 A 88.928572 88.21429 0 0 0 366 76.667969 A 88.928572 88.21429 0 0 0 365.2207 76.824219 A 88.928572 88.21429 0 0 0 364.44336 76.988281 A 88.928572 88.21429 0 0 0 363.66797 77.158203 A 88.928572 88.21429 0 0 0 362.89258 77.333984 A 88.928572 88.21429 0 0 0 362.12109 77.517578 A 88.928572 88.21429 0 0 0 361.34961 77.707031 A 88.928572 88.21429 0 0 0 360.58008 77.904297 A 88.928572 88.21429 0 0 0 359.8125 78.109375 A 88.928572 88.21429 0 0 0 359.04688 78.320312 A 88.928572 88.21429 0 0 0 358.2832 78.537109 A 88.928572 88.21429 0 0 0 357.52148 78.761719 A 88.928572 88.21429 0 0 0 356.76172 78.992188 A 88.928572 88.21429 0 0 0 356.00391 79.230469 A 88.928572 88.21429 0 0 0 355.24805 79.474609 A 88.928572 88.21429 0 0 0 354.49609 79.726562 A 88.928572 88.21429 0 0 0 353.74414 79.984375 A 88.928572 88.21429 0 0 0 352.99609 80.248047 A 88.928572 88.21429 0 0 0 352.25 80.519531 A 88.928572 88.21429 0 0 0 351.50586 80.796875 A 88.928572 88.21429 0 0 0 350.76562 81.082031 A 88.928572 88.21429 0 0 0 350.02734 81.373047 A 88.928572 88.21429 0 0 0 349.29102 81.669922 A 88.928572 88.21429 0 0 0 348.55859 81.974609 A 88.928572 88.21429 0 0 0 347.82812 82.285156 A 88.928572 88.21429 0 0 0 347.09961 82.601562 A 88.928572 88.21429 0 0 0 346.375 82.925781 A 88.928572 88.21429 0 0 0 345.6543 83.253906 A 88.928572 88.21429 0 0 0 344.93555 83.589844 A 88.928572 88.21429 0 0 0 344.21875 83.933594 A 88.928572 88.21429 0 0 0 343.50781 84.28125 A 88.928572 88.21429 0 0 0 342.79688 84.636719 A 88.928572 88.21429 0 0 0 342.0918 84.998047 A 88.928572 88.21429 0 0 0 341.38867 85.365234 A 88.928572 88.21429 0 0 0 340.68945 85.740234 A 88.928572 88.21429 0 0 0 339.99219 86.119141 A 88.928572 88.21429 0 0 0 339.30078 86.505859 A 88.928572 88.21429 0 0 0 338.61133 86.898438 A 88.928572 88.21429 0 0 0 337.92578 87.296875 A 88.928572 88.21429 0 0 0 337.24414 87.701172 A 88.928572 88.21429 0 0 0 336.56445 88.111328 A 88.928572 88.21429 0 0 0 335.89062 88.527344 A 88.928572 88.21429 0 0 0 335.2207 88.951172 A 88.928572 88.21429 0 0 0 334.55273 89.378906 A 88.928572 88.21429 0 0 0 333.88867 89.8125 A 88.928572 88.21429 0 0 0 333.23047 90.253906 A 88.928572 88.21429 0 0 0 332.57617 90.699219 A 88.928572 88.21429 0 0 0 331.92383 91.150391 A 88.928572 88.21429 0 0 0 331.27734 91.607422 A 88.928572 88.21429 0 0 0 330.63477 92.070312 A 88.928572 88.21429 0 0 0 329.99609 92.541016 A 88.928572 88.21429 0 0 0 329.36133 93.013672 A 88.928572 88.21429 0 0 0 328.73047 93.494141 A 88.928572 88.21429 0 0 0 328.10547 93.980469 A 88.928572 88.21429 0 0 0 327.48438 94.470703 A 88.928572 88.21429 0 0 0 326.86719 94.96875 A 88.928572 88.21429 0 0 0 326.25391 95.470703 A 88.928572 88.21429 0 0 0 325.64648 95.978516 A 88.928572 88.21429 0 0 0 325.04297 96.490234 A 88.928572 88.21429 0 0 0 324.44531 97.009766 A 88.928572 88.21429 0 0 0 323.84961 97.533203 A 88.928572 88.21429 0 0 0 323.26172 98.060547 A 88.928572 88.21429 0 0 0 322.67578 98.595703 A 88.928572 88.21429 0 0 0 322.09766 99.134766 A 88.928572 88.21429 0 0 0 321.52148 99.679688 A 88.928572 88.21429 0 0 0 320.95312 100.22852 A 88.928572 88.21429 0 0 0 320.38672 100.7832 A 88.928572 88.21429 0 0 0 319.82812 101.3418 A 88.928572 88.21429 0 0 0 319.27344 101.90625 A 88.928572 88.21429 0 0 0 318.72266 102.47461 A 88.928572 88.21429 0 0 0 318.17969 103.04883 A 88.928572 88.21429 0 0 0 317.63867 103.62891 A 88.928572 88.21429 0 0 0 317.10547 104.21094 A 88.928572 88.21429 0 0 0 316.57617 104.80078 A 88.928572 88.21429 0 0 0 316.05273 105.39258 A 88.928572 88.21429 0 0 0 315.53516 105.99023 A 88.928572 88.21429 0 0 0 315.02148 106.5918 A 88.928572 88.21429 0 0 0 314.51562 107.19922 A 88.928572 88.21429 0 0 0 314.01367 107.81055 A 88.928572 88.21429 0 0 0 313.51758 108.42578 A 88.928572 88.21429 0 0 0 313.02539 109.04492 A 88.928572 88.21429 0 0 0 312.54102 109.66992 A 88.928572 88.21429 0 0 0 312.0625 110.29883 A 88.928572 88.21429 0 0 0 311.58789 110.93164 A 88.928572 88.21429 0 0 0 311.11914 111.56836 A 88.928572 88.21429 0 0 0 310.6582 112.20898 A 88.928572 88.21429 0 0 0 310.20117 112.85352 A 88.928572 88.21429 0 0 0 309.75 113.50391 A 88.928572 88.21429 0 0 0 309.30469 114.15625 A 88.928572 88.21429 0 0 0 308.86719 114.81445 A 88.928572 88.21429 0 0 0 308.43359 115.47461 A 88.928572 88.21429 0 0 0 308.00586 116.13867 A 88.928572 88.21429 0 0 0 307.58594 116.80859 A 88.928572 88.21429 0 0 0 307.16992 117.48047 A 88.928572 88.21429 0 0 0 306.76172 118.15625 A 88.928572 88.21429 0 0 0 306.35938 118.83594 A 88.928572 88.21429 0 0 0 305.96289 119.51758 A 88.928572 88.21429 0 0 0 305.57227 120.20508 A 88.928572 88.21429 0 0 0 305.1875 120.89453 A 88.928572 88.21429 0 0 0 304.80859 121.58789 A 88.928572 88.21429 0 0 0 304.4375 122.2832 A 88.928572 88.21429 0 0 0 304.07227 122.98438 A 88.928572 88.21429 0 0 0 303.71289 123.6875 A 88.928572 88.21429 0 0 0 303.35938 124.39258 A 88.928572 88.21429 0 0 0 303.01367 125.10156 A 88.928572 88.21429 0 0 0 302.67383 125.81445 A 88.928572 88.21429 0 0 0 302.33984 126.5293 A 88.928572 88.21429 0 0 0 302.01172 127.24805 A 88.928572 88.21429 0 0 0 301.69141 127.96875 A 88.928572 88.21429 0 0 0 301.37695 128.69336 A 88.928572 88.21429 0 0 0 301.07031 129.41992 A 88.928572 88.21429 0 0 0 300.76953 130.15039 A 88.928572 88.21429 0 0 0 300.47461 130.88086 A 88.928572 88.21429 0 0 0 300.18555 131.61719 A 88.928572 88.21429 0 0 0 299.9043 132.35352 A 88.928572 88.21429 0 0 0 299.63086 133.09375 A 88.928572 88.21429 0 0 0 299.36328 133.83594 A 88.928572 88.21429 0 0 0 299.10156 134.58008 A 88.928572 88.21429 0 0 0 298.8457 135.32617 A 88.928572 88.21429 0 0 0 298.59961 136.07422 A 88.928572 88.21429 0 0 0 298.35742 136.82617 A 88.928572 88.21429 0 0 0 298.12305 137.58008 A 88.928572 88.21429 0 0 0 297.89648 138.33398 A 88.928572 88.21429 0 0 0 297.67578 139.0918 A 88.928572 88.21429 0 0 0 297.46094 139.85156 A 88.928572 88.21429 0 0 0 297.25391 140.61133 A 88.928572 88.21429 0 0 0 297.05469 141.375 A 88.928572 88.21429 0 0 0 296.86133 142.13867 A 88.928572 88.21429 0 0 0 296.67383 142.9043 A 88.928572 88.21429 0 0 0 296.49414 143.67383 A 88.928572 88.21429 0 0 0 296.32227 144.44141 A 88.928572 88.21429 0 0 0 296.15625 145.21289 A 88.928572 88.21429 0 0 0 295.99805 145.98633 A 88.928572 88.21429 0 0 0 295.8457 146.75977 A 88.928572 88.21429 0 0 0 295.70117 147.5332 A 88.928572 88.21429 0 0 0 295.56445 148.31055 A 88.928572 88.21429 0 0 0 295.43359 149.08789 A 88.928572 88.21429 0 0 0 295.31055 149.86719 A 88.928572 88.21429 0 0 0 295.19336 150.64648 A 88.928572 88.21429 0 0 0 295.08398 151.42578 A 88.928572 88.21429 0 0 0 294.98047 152.20898 A 88.928572 88.21429 0 0 0 294.88477 152.99023 A 88.928572 88.21429 0 0 0 294.79688 153.77344 A 88.928572 88.21429 0 0 0 294.71484 154.55859 A 88.928572 88.21429 0 0 0 294.64062 155.34375 A 88.928572 88.21429 0 0 0 294.57227 156.12891 A 88.928572 88.21429 0 0 0 294.51367 156.91406 A 88.928572 88.21429 0 0 0 294.45898 157.70117 A 88.928572 88.21429 0 0 0 294.41406 158.48828 A 88.928572 88.21429 0 0 0 294.375 159.27539 A 88.928572 88.21429 0 0 0 294.3418 160.0625 A 88.928572 88.21429 0 0 0 294.31836 160.84961 A 88.928572 88.21429 0 0 0 294.30078 161.63867 A 88.928572 88.21429 0 0 0 294.28906 162.42578 A 88.928572 88.21429 0 0 0 294.28516 163.21484 A 88.928572 88.21429 0 0 0 294.28711 163.84766 A 88.928572 88.21429 0 0 0 294.29688 164.63477 A 88.928572 88.21429 0 0 0 294.31445 165.42383 A 88.928572 88.21429 0 0 0 294.33789 166.21094 A 88.928572 88.21429 0 0 0 294.36719 166.99805 A 88.928572 88.21429 0 0 0 294.4043 167.78516 A 88.928572 88.21429 0 0 0 294.44922 168.57227 A 88.928572 88.21429 0 0 0 294.50195 169.35938 A 88.928572 88.21429 0 0 0 294.56055 170.14453 A 88.928572 88.21429 0 0 0 294.62695 170.93164 A 88.928572 88.21429 0 0 0 294.69922 171.71484 A 88.928572 88.21429 0 0 0 294.7793 172.5 A 88.928572 88.21429 0 0 0 294.86719 173.2832 A 88.928572 88.21429 0 0 0 294.96094 174.06641 A 88.928572 88.21429 0 0 0 295.0625 174.84766 A 88.928572 88.21429 0 0 0 295.16992 175.62891 A 88.928572 88.21429 0 0 0 295.28516 176.4082 A 88.928572 88.21429 0 0 0 295.4082 177.1875 A 88.928572 88.21429 0 0 0 295.53711 177.96484 A 88.928572 88.21429 0 0 0 295.67383 178.74219 A 88.928572 88.21429 0 0 0 295.68164 178.78516 C 341.28105 159.19853 364.70451 134.89806 376.37305 114.12109 C 390.70043 134.28884 416.39785 156.46607 462.33398 173.91016 C 465.38855 175.07012 468.26514 175.98889 471.07812 176.82422 z "
       transform="scale(0.26458333)" />
    <ellipse
       style="fill:#0b0a09;fill-opacity:1;stroke:none;stroke-width:3;stop-color:#000000"
       id="path835-4"
       cx="123.59821"
       cy="21.166666"
       rx="12.756697"
       ry="12.851191" />
    <ellipse
       style="fill:#8ff0a4;fill-opacity:1;stroke:none;stroke-width:3;stop-color:#000000"
       id="path880"
       cx="89.107887"
       cy="47.152527"
       rx="4.2522321"
       ry="3.8742559" />
    <ellipse
       style="fill:#8ff0a4;fill-opacity:1;stroke:none;stroke-width:3;stop-color:#000000"
       id="path880-3"
       cx="113.39286"
       cy="47.813992"
       rx="4.2522321"
       ry="3.8742561" />
    <path
       sodipodi:type="star"
       style="fill:#f08062;fill-opacity:1;stroke:none;stroke-width:3;stop-color:#000000"
       id="path897"
       sodipodi:sides="3"
       sodipodi:cx="100.54167"
       sodipodi:cy="57.074404"
       sodipodi:r1="4.2259021"
       sodipodi:r2="2.112951"
       sodipodi:arg1="0.46364761"
       sodipodi:arg2="1.5108452"
       inkscape:flatsided="true"
       inkscape:rounded="0.08"
       inkscape:randomized="0"
       d="m 104.32143,58.964287 c -0.26187,0.523739 -6.983687,0.927203 -7.306324,0.438548 -0.322637,-0.488655 2.688864,-6.511656 3.273374,-6.546739 0.5845,-0.03508 4.29482,5.584451 4.03295,6.108191 z"
       inkscape:transform-center-x="0.76812007"
       inkscape:transform-center-y="5.6957336" />
    <ellipse
       style="fill:#f7fcff;fill-opacity:1;stroke:none;stroke-width:3;stop-color:#000000"
       id="path912"
       cx="105.15729"
       cy="83.556816"
       rx="1.3229166"
       ry="1.4174107" />
    <ellipse
       style="fill:#f7fcff;fill-opacity:1;stroke:none;stroke-width:3;stop-color:#000000"
       id="path912-9"
       cx="104.97012"
       cy="88.132126"
       rx="1.3229166"
       ry="1.4174107" />
  </g>
</svg>
