<?xml version="1.0" encoding="UTF-8" standalone="no"?>
<svg
   xmlns:dc="http://purl.org/dc/elements/1.1/"
   xmlns:cc="http://creativecommons.org/ns#"
   xmlns:rdf="http://www.w3.org/1999/02/22-rdf-syntax-ns#"
   xmlns:svg="http://www.w3.org/2000/svg"
   xmlns="http://www.w3.org/2000/svg"
   xmlns:xlink="http://www.w3.org/1999/xlink"
   xmlns:sodipodi="http://sodipodi.sourceforge.net/DTD/sodipodi-0.dtd"
   xmlns:inkscape="http://www.inkscape.org/namespaces/inkscape"
   width="210mm"
   height="297mm"
   viewBox="0 0 210 297"
   version="1.1"
   id="svg8"
   inkscape:version="1.0.1 (3bc2e813f5, 2020-09-07)"
   sodipodi:docname="fizik prof test.svg">
  <defs
     id="defs2">
    <linearGradient
       inkscape:collect="always"
       id="linearGradient1026">
      <stop
         style="stop-color:#fbafe8;stop-opacity:1"
         offset="0"
         id="stop1022" />
      <stop
         style="stop-color:#f66151;stop-opacity:0;"
         offset="1"
         id="stop1024" />
    </linearGradient>
    <radialGradient
       inkscape:collect="always"
       xlink:href="#linearGradient1026"
       id="radialGradient1028"
       cx="133.61458"
       cy="99.478607"
       fx="133.61458"
       fy="99.478607"
       r="6.1421132"
       gradientTransform="matrix(1.3307692,0,0,0.70121309,-41.691498,33.250258)"
       gradientUnits="userSpaceOnUse" />
    <radialGradient
       inkscape:collect="always"
       xlink:href="#linearGradient1026"
       id="radialGradient1028-0"
       cx="133.61458"
       cy="99.478607"
       fx="133.61458"
       fy="99.478607"
       r="6.1421132"
       gradientTransform="matrix(1.3307692,0,0,0.70121308,-15.658369,32.675846)"
       gradientUnits="userSpaceOnUse" />
  </defs>
  <sodipodi:namedview
     id="base"
     pagecolor="#ffffff"
     bordercolor="#666666"
     borderopacity="1.0"
     inkscape:pageopacity="0.0"
     inkscape:pageshadow="2"
     inkscape:zoom="1.979899"
     inkscape:cx="321.58669"
     inkscape:cy="410.43511"
     inkscape:document-units="mm"
     inkscape:current-layer="layer1"
     inkscape:document-rotation="0"
     showgrid="false"
     inkscape:window-width="1920"
     inkscape:window-height="986"
     inkscape:window-x="-11"
     inkscape:window-y="-11"
     inkscape:window-maximized="1" />
  <metadata
     id="metadata5">
    <rdf:RDF>
      <cc:Work
         rdf:about="">
        <dc:format>image/svg+xml</dc:format>
        <dc:type
           rdf:resource="http://purl.org/dc/dcmitype/StillImage" />
        <dc:title />
      </cc:Work>
    </rdf:RDF>
  </metadata>
  <g
     inkscape:label="Calque 1"
     inkscape:groupmode="layer"
     id="layer1">
    <path
       style="fill:#fbefcb;fill-opacity:1;stroke:none;stroke-width:0.264583px;stroke-linecap:butt;stroke-linejoin:miter;stroke-opacity:1"
       d="m 142.30803,112.35342 -12.85119,43.37277 42.33334,0.75595 -15.02456,-44.88467 z"
       id="path1055" />
    <path
       style="fill:#c0c0c0;fill-opacity:1;stroke:#726d5e;stroke-width:0.252433px;stroke-linecap:butt;stroke-linejoin:miter;stroke-opacity:1"
       d="m 139.17787,114.72933 22.67681,-1e-5 -8.4666,7.26963 -13.38081,-3.55345 z"
       id="path1128" />
    <path
       id="path1057"
       style="fill:#ece1be;fill-opacity:1;stroke-width:0.264583;stop-color:#000000"
       d="m 158.90303,117.98327 -2.13733,-6.38565 -14.45752,0.75602 -2.03605,6.87142 a 24.321527,24.321527 0 0 0 7.82174,1.29242 24.321527,24.321527 0 0 0 10.80916,-2.53421 z" />
    <path
       id="path837"
       style="fill:#fbefcb;fill-opacity:1;stroke-width:0.264583;stop-color:#000000"
       d="M 171.8733,90.620579 A 24.321527,24.321527 0 0 1 147.55178,114.9421 24.321527,24.321527 0 0 1 123.23025,90.620579 24.321527,24.321527 0 0 1 147.55178,66.299052 24.321527,24.321527 0 0 1 171.8733,90.620579 Z" />
    <g
       id="g847"
       transform="translate(-62.121171,-33.659748)">
      <path
         id="path839"
         style="fill:#daf5fb;fill-opacity:1;stroke:#000000;stroke-width:1.065;stroke-miterlimit:4;stroke-dasharray:none;stroke-opacity:1;stop-color:#000000"
         d="M 150.47276,92.074356 A 11.358955,11.358955 0 0 1 139.1138,103.43331 11.358955,11.358955 0 0 1 127.75484,92.074356 11.358955,11.358955 0 0 1 139.1138,80.715401 11.358955,11.358955 0 0 1 150.47276,92.074356 Z" />
      <path
         id="path841"
         style="fill:none;fill-rule:evenodd;stroke:#000000;stroke-width:0.264583"
         transform="matrix(1.1089141,0,0,1.1027545,-14.225764,-8.4953516)"
         d="m 138.17834,91.272537 c -0.18965,-0.589932 0.70165,-0.546705 0.98051,-0.315222 0.75569,0.627305 0.33187,1.790197 -0.35006,2.276235 -1.21982,0.869409 -2.88043,0.192002 -3.57197,-1.015346 -1.01485,-1.77183 -0.0556,-3.988196 1.68064,-4.867693 2.31408,-1.172232 5.10254,0.07893 6.16342,2.345914 1.335,2.852769 -0.21235,6.220119 -3.0112,7.459152 -3.38979,1.500635 -7.33953,-0.345118 -8.75488,-3.676483 -1.66795,-3.925899 0.47748,-8.460082 4.34177,-10.05061 4.46147,-1.836327 9.5814,0.60957 11.34633,5.007052 1.8916,4.71306 -0.44194,10.138619 -4.94915,12.325064" />
    </g>
    <ellipse
       style="fill:#85b5ee;fill-opacity:1;stroke:none;stroke-width:1.065;stroke-miterlimit:4;stroke-dasharray:none;stroke-opacity:1;stop-color:#000000"
       id="path982"
       cx="142.40251"
       cy="62.933033"
       rx="11.811756"
       ry="11.339286" />
    <path
       id="path919"
       style="fill:#99c1f1;stroke:none;stroke-width:0.264583px;stroke-linecap:butt;stroke-linejoin:miter;stroke-opacity:1"
       d="m 150.42138,66.469105 c -8.66604,-1.115003 -17.75534,2.91922 -22.73179,10.105913 -3.28124,4.645931 -4.88589,10.465859 -4.3694,16.136412 7.94918,-1.394612 15.94271,-4.396422 21.73608,-10.203964 4.15026,-4.172959 7.01319,-9.776372 7.3624,-15.700398 -0.66576,-0.112654 -1.33153,-0.225309 -1.99729,-0.337963 z" />
    <path
       id="path919-6"
       style="fill:#99c1f1;stroke:none;stroke-width:0.264583px;stroke-linecap:butt;stroke-linejoin:miter;stroke-opacity:1"
       d="m 145.58351,66.534675 c 8.66604,-1.115003 17.75534,2.91922 22.73179,10.105913 3.28124,4.645931 4.88589,10.465859 4.3694,16.136412 -7.94918,-1.394612 -15.94271,-4.396422 -21.73608,-10.203964 -4.15026,-4.172959 -7.01319,-9.776372 -7.3624,-15.700398 0.66576,-0.112654 1.33153,-0.225309 1.99729,-0.337963 z" />
    <path
       id="path944-0"
       style="fill:#fbefcb;fill-opacity:1;stroke:none;stroke-width:1.065;stroke-miterlimit:4;stroke-dasharray:none;stroke-opacity:1;stop-color:#000000"
       d="m 176.18415,95.533482 a 5.2444196,5.622396 0 0 1 -5.24442,5.622398 5.2444196,5.622396 0 0 1 -5.24442,-5.622398 5.2444196,5.622396 0 0 1 5.24442,-5.622396 5.2444196,5.622396 0 0 1 5.24442,5.622396 z" />
    <path
       sodipodi:type="spiral"
       style="fill:none;fill-opacity:1;fill-rule:evenodd;stroke:#e7ab68;stroke-width:0.264583;stroke-opacity:1"
       id="path986-3"
       sodipodi:cx="-122.40431"
       sodipodi:cy="-96.51606"
       sodipodi:expansion="1"
       sodipodi:revolution="2.4877901"
       sodipodi:radius="4.442225"
       sodipodi:argument="-13.000884"
       sodipodi:t0="0"
       d="m -122.40431,-96.51606 c 0.24362,-0.113065 0.2726,0.272619 0.18792,0.404921 -0.22949,0.358529 -0.75231,0.238301 -0.99776,-0.02908 -0.43907,-0.478277 -0.23633,-1.228713 0.24607,-1.590606 0.70795,-0.531092 1.71248,-0.236776 2.18345,0.463075 0.62773,0.932792 0.2384,2.198973 -0.68007,2.776291 -1.15581,0.726495 -2.6868,0.240664 -3.36914,-0.897073 -0.8264,-1.377953 -0.2433,-3.175376 1.11408,-3.961976 1.59962,-0.926985 3.66442,-0.246182 4.55481,1.331071 1.028,1.821001 0.24922,4.15379 -1.54807,5.147661 -1.92626,1.065194 -4.38452,0.351058 -5.56555,-1.470925"
       transform="matrix(0.75667521,0,0,-0.85366244,265.0359,13.803893)" />
    <path
       id="path1012-5"
       style="fill:url(#radialGradient1028-0);fill-opacity:1;stroke:none;stroke-width:1.41727;stroke-miterlimit:4;stroke-dasharray:none;stroke-opacity:1;stop-color:#000000"
       d="m 170.32552,102.43155 a 8.1737356,4.3069301 0 0 1 -8.17374,4.30692 8.1737356,4.3069301 0 0 1 -8.17373,-4.30692 8.1737356,4.3069301 0 0 1 8.17373,-4.306932 8.1737356,4.3069301 0 0 1 8.17374,4.306932 z" />
    <path
       style="fill:#99c1f1;fill-opacity:1;stroke:none;stroke-width:0.168886px;stroke-linecap:butt;stroke-linejoin:miter;stroke-opacity:1"
       d="m 170.70288,109.77092 c 3.08851,-13.654643 -1.17658,-22.930896 -1.17658,-22.930896 0,0 -4.70632,20.259326 -2.4512,27.086656 0,0 1.2256,-4.15576 1.2256,-6.45627 0,0 1.37267,5.41732 0.44121,7.71784 0,0 2.20608,-5.41733 1.47072,-7.27258 0,0 0.53927,0.29683 0.49025,1.85525 z"
       id="path965-8"
       sodipodi:nodetypes="ccccccc" />
    <path
       id="path1012"
       style="fill:url(#radialGradient1028);fill-opacity:1;stroke:none;stroke-width:1.41727;stroke-miterlimit:4;stroke-dasharray:none;stroke-opacity:1;stop-color:#000000"
       d="m 144.2924,103.00596 a 8.1737356,4.3069301 0 0 1 -8.17374,4.30693 8.1737356,4.3069301 0 0 1 -8.17373,-4.30693 8.1737356,4.3069301 0 0 1 8.17373,-4.306929 8.1737356,4.3069301 0 0 1 8.17374,4.306929 z" />
    <path
       style="fill:none;stroke:#000000;stroke-width:0.264583px;stroke-linecap:butt;stroke-linejoin:miter;stroke-opacity:1"
       d="m 143.83292,104.8707 c 0,0 4.19565,4.25199 7.48454,-0.0139 0,0 3.3199,3.8339 7.51597,0.2143"
       id="path917"
       sodipodi:nodetypes="ccc" />
    <path
       id="path944"
       style="fill:#fbefcb;fill-opacity:1;stroke:none;stroke-width:1.065;stroke-miterlimit:4;stroke-dasharray:none;stroke-opacity:1;stop-color:#000000"
       d="m 129.36235,96.525669 a 5.2444196,5.622396 0 0 1 -5.24442,5.622391 5.2444196,5.622396 0 0 1 -5.24442,-5.622391 5.2444196,5.622396 0 0 1 5.24442,-5.622395 5.2444196,5.622396 0 0 1 5.24442,5.622395 z" />
    <path
       sodipodi:type="spiral"
       style="fill:none;fill-opacity:1;fill-rule:evenodd;stroke:#e7ab68;stroke-width:0.264583;stroke-opacity:1"
       id="path986"
       sodipodi:cx="-122.40431"
       sodipodi:cy="-96.51606"
       sodipodi:expansion="1"
       sodipodi:revolution="2.4877901"
       sodipodi:radius="4.442225"
       sodipodi:argument="-13.000884"
       sodipodi:t0="0"
       d="m -122.40431,-96.51606 c 0.24362,-0.113065 0.2726,0.272619 0.18792,0.404921 -0.22949,0.358529 -0.75231,0.238301 -0.99776,-0.02908 -0.43907,-0.478277 -0.23633,-1.228713 0.24607,-1.590606 0.70795,-0.531092 1.71248,-0.236776 2.18345,0.463075 0.62773,0.932792 0.2384,2.198973 -0.68007,2.776291 -1.15581,0.726495 -2.6868,0.240664 -3.36914,-0.897073 -0.8264,-1.377953 -0.2433,-3.175376 1.11408,-3.961976 1.59962,-0.926985 3.66442,-0.246182 4.55481,1.331071 1.028,1.821001 0.24922,4.15379 -1.54807,5.147661 -1.92626,1.065194 -4.38452,0.351058 -5.56555,-1.470925"
       transform="matrix(-0.75667522,0,0,-0.85366243,30.747736,14.909392)" />
    <path
       style="fill:#99c1f1;fill-opacity:1;stroke:none;stroke-width:0.168886px;stroke-linecap:butt;stroke-linejoin:miter;stroke-opacity:1"
       d="m 124.91955,112.88922 c -3.08851,-13.654636 1.17658,-22.930889 1.17658,-22.930889 0,0 4.70632,20.259319 2.4512,27.086649 0,0 -1.2256,-4.15576 -1.2256,-6.45627 0,0 -1.37267,5.41732 -0.44121,7.71784 0,0 -2.20608,-5.41733 -1.47072,-7.27258 0,0 -0.53927,0.29683 -0.49025,1.85525 z"
       id="path965"
       sodipodi:nodetypes="ccccccc" />
    <g
       id="g915"
       transform="matrix(1.1668838,0,0,1.1668838,28.450227,-14.141547)">
      <path
         style="fill:#241f31;stroke:#000000;stroke-width:0.264583px;stroke-linecap:butt;stroke-linejoin:miter;stroke-opacity:1"
         d="m 99.812054,91.866636 c 0,0 4.610396,-3.541321 10.056016,0 5.44561,3.541324 0.13363,1.403167 0.13363,1.403167 0,0 -5.0113,-3.374278 -9.78875,-0.06682 -4.777436,3.307458 -0.400896,-1.33635 -0.400896,-1.33635 z"
         id="path904" />
      <path
         id="path839-5"
         style="fill:#daf5fb;fill-opacity:1;stroke:#000000;stroke-width:0.873507;stroke-miterlimit:4;stroke-dasharray:none;stroke-opacity:1;stop-color:#000000"
         d="m 107.42574,92.519565 a 9.3165455,9.3165455 0 0 0 9.31655,9.316545 9.3165455,9.3165455 0 0 0 9.31655,-9.316545 9.3165455,9.3165455 0 0 0 -9.31655,-9.316545 9.3165455,9.3165455 0 0 0 -9.31655,9.316545 z" />
      <path
         id="path841-0"
         style="fill:none;fill-rule:evenodd;stroke:#000000;stroke-width:0.239975"
         d="m 116.83386,92.586405 c 0.1725,-0.533577 -0.63816,-0.494479 -0.89179,-0.285109 -0.68732,0.56738 -0.30185,1.619184 0.31838,2.058792 1.10946,0.786356 2.61983,0.17366 3.2488,-0.918353 0.92303,-1.602571 0.0506,-3.607214 -1.52858,-4.402694 -2.10472,-1.060252 -4.64089,0.07139 -5.60579,2.121814 -1.21421,2.580251 0.19314,5.625927 2.73876,6.746598 3.0831,1.357283 6.67549,-0.31215 7.96278,-3.325278 1.51704,-3.550867 -0.43428,-7.651911 -3.94894,-9.0905 -4.05782,-1.660907 -8.71452,0.551339 -10.31977,4.528741 -1.72046,4.262833 0.40196,9.170102 4.50137,11.147684" />
      <path
         id="path839-5-2"
         style="fill:#daf5fb;fill-opacity:1;stroke:#000000;stroke-width:0.873507;stroke-miterlimit:4;stroke-dasharray:none;stroke-opacity:1;stop-color:#000000"
         d="m 84.063604,92.377937 a 9.3165455,9.3165455 0 0 0 9.31655,9.316543 9.3165455,9.3165455 0 0 0 9.316546,-9.316543 9.3165455,9.3165455 0 0 0 -9.316546,-9.316545 9.3165455,9.3165455 0 0 0 -9.31655,9.316545 z" />
      <path
         id="path841-0-4"
         style="fill:none;fill-rule:evenodd;stroke:#000000;stroke-width:0.239975"
         d="m 93.471724,92.444777 c 0.1725,-0.533577 -0.63816,-0.494479 -0.89179,-0.285109 -0.68732,0.56738 -0.30185,1.619184 0.31838,2.058792 1.10946,0.786356 2.61983,0.17366 3.2488,-0.918353 0.92303,-1.602571 0.0506,-3.607214 -1.52858,-4.402694 -2.10472,-1.060252 -4.64089,0.07139 -5.60579,2.121814 -1.21421,2.580251 0.19314,5.625927 2.73876,6.746598 3.0831,1.357283 6.67549,-0.31215 7.96278,-3.325278 1.517036,-3.550867 -0.43428,-7.651911 -3.94894,-9.0905 -4.05782,-1.660907 -8.71452,0.551339 -10.31977,4.528741 -1.72046,4.262833 0.40196,9.170102 4.50137,11.147682" />
    </g>
    <path
       style="fill:#99c1f1;fill-opacity:1;stroke:none;stroke-width:0.264583px;stroke-linecap:butt;stroke-linejoin:miter;stroke-opacity:1"
       d="m 154.94408,93.024915 c -10.87671,-5.993239 -6.82828,-16.07601 -6.82828,-16.07601 0,0 1.56957,11.023489 6.82828,16.07601 z"
       id="path984" />
    <rect
       style="fill:#f8f8f8;fill-opacity:1;stroke:#8c8573;stroke-width:0.264999;stroke-miterlimit:4;stroke-dasharray:none;stroke-opacity:1;stop-color:#000000"
       id="rect1130"
       width="13.323654"
       height="33.261902"
       x="167.13982"
       y="59.493927"
       ry="6.6618271"
       transform="rotate(22.042761)" />
    <ellipse
       style="fill:#fbefcb;fill-opacity:1;stroke:none;stroke-width:0.264999;stroke-miterlimit:4;stroke-dasharray:none;stroke-opacity:1;stop-color:#000000"
       id="path1138"
       cx="126.72128"
       cy="155.09669"
       rx="6.609827"
       ry="6.39363" />
    <rect
       style="fill:#f8f8f8;fill-opacity:1;stroke:#726d5e;stroke-width:0.264999;stroke-miterlimit:4;stroke-dasharray:none;stroke-opacity:1;stop-color:#000000"
       id="rect1132"
       width="21.733631"
       height="8.2209816"
       x="159.95177"
       y="95.043159"
       ry="4.1104908"
       transform="rotate(19.45547)"
       rx="3.2758102" />
    <path
       style="fill:#fbfbfb;fill-opacity:1;stroke:#8c8573;stroke-width:0.264583px;stroke-linecap:butt;stroke-linejoin:miter;stroke-opacity:1"
       d="m 150.51076,119.42502 -0.26523,36.67914 c 0,0 -18.99331,8.22099 -20.78869,-0.37797 -1.04004,-4.98124 9.20889,-36.40664 9.20889,-36.40664 z"
       id="path1084"
       sodipodi:nodetypes="ccscc" />
    <path
       id="rect1064"
       style="fill:#fbfbfb;fill-opacity:1;stroke:#8c8573;stroke-width:0.265;stroke-miterlimit:4;stroke-dasharray:none;stroke-opacity:1;stop-color:#000000"
       transform="rotate(21.910363)"
       d="m 171.25761,54.634876 h 12.94569 v 5.953125 h -12.94569 z" />
    <rect
       style="fill:#fbfbfb;fill-opacity:1;stroke:#8c8573;stroke-width:0.264999;stroke-miterlimit:4;stroke-dasharray:none;stroke-opacity:1;stop-color:#000000"
       id="rect1142"
       width="12.239667"
       height="23.552092"
       x="94.764755"
       y="174.11816"
       rx="3.2758062"
       ry="8.5902567"
       transform="rotate(-23.470385)" />
    <rect
       style="fill:#fbfbfb;fill-opacity:1;stroke:#8c8573;stroke-width:0.264999;stroke-miterlimit:4;stroke-dasharray:none;stroke-opacity:1;stop-color:#000000"
       id="rect1142-1"
       width="12.239667"
       height="23.552092"
       x="-218.98929"
       y="40.741467"
       rx="3.2758062"
       ry="4.110487"
       transform="matrix(-0.91726605,-0.39827502,-0.39827502,0.91726605,0,0)" />
    <path
       style="fill:#fbfbfb;fill-opacity:1;stroke:#8c8573;stroke-width:0.265;stroke-linecap:butt;stroke-linejoin:miter;stroke-miterlimit:4;stroke-dasharray:none;stroke-opacity:1"
       d="m 150.51076,119.42502 -0.26523,36.67914 c 0,0 22.05623,7.54239 21.54465,0.37798 -0.69158,-9.68524 -10.4303,-37.93191 -10.4303,-37.93191 z"
       id="path1082"
       sodipodi:nodetypes="ccscc" />
    <path
       id="path1086"
       style="fill:#f1e98f;fill-opacity:1;stroke:#faba20;stroke-width:0.264999;stroke-miterlimit:4;stroke-dasharray:none;stroke-opacity:1;stop-color:#000000"
       d="m 152.73221,124.39129 a 0.73542643,0.55684513 0 0 1 -0.73543,0.55684 0.73542643,0.55684513 0 0 1 -0.73543,-0.55684 0.73542643,0.55684513 0 0 1 0.73543,-0.55685 0.73542643,0.55684513 0 0 1 0.73543,0.55685 z" />
    <path
       id="rect1064-1"
       style="fill:#fbfbfb;fill-opacity:1;stroke:#8c8573;stroke-width:0.265;stroke-miterlimit:4;stroke-dasharray:none;stroke-opacity:1;stop-color:#000000"
       d="m 162.52137,114.59426 -12.01061,4.83076 2.22144,5.52312 12.01061,-4.83075 z" />
    <path
       id="path1086-3"
       style="fill:#f1e98f;fill-opacity:1;stroke:#faba20;stroke-width:0.264999;stroke-miterlimit:4;stroke-dasharray:none;stroke-opacity:1;stop-color:#000000"
       d="m 152.96534,128.32292 a 0.73542644,0.55684513 0 0 1 -0.73543,0.55684 0.73542644,0.55684513 0 0 1 -0.73543,-0.55684 0.73542644,0.55684513 0 0 1 0.73543,-0.55685 0.73542644,0.55684513 0 0 1 0.73543,0.55685 z" />
    <path
       id="path1086-5"
       style="fill:#f1e98f;fill-opacity:1;stroke:#faba20;stroke-width:0.264999;stroke-miterlimit:4;stroke-dasharray:none;stroke-opacity:1;stop-color:#000000"
       d="m 152.79998,132.76414 a 0.73542644,0.55684513 0 0 1 -0.73543,0.55684 0.73542644,0.55684513 0 0 1 -0.73543,-0.55684 0.73542644,0.55684513 0 0 1 0.73543,-0.55685 0.73542644,0.55684513 0 0 1 0.73543,0.55685 z" />
    <path
       id="path1086-0"
       style="fill:#f1e98f;fill-opacity:1;stroke:#faba20;stroke-width:0.264999;stroke-miterlimit:4;stroke-dasharray:none;stroke-opacity:1;stop-color:#000000"
       d="m 152.58736,138.07943 a 0.73542644,0.55684513 0 0 1 -0.73543,0.55684 0.73542644,0.55684513 0 0 1 -0.73543,-0.55684 0.73542644,0.55684513 0 0 1 0.73543,-0.55685 0.73542644,0.55684513 0 0 1 0.73543,0.55685 z" />
    <path
       id="path1086-9"
       style="fill:#f1e98f;fill-opacity:1;stroke:#faba20;stroke-width:0.264999;stroke-miterlimit:4;stroke-dasharray:none;stroke-opacity:1;stop-color:#000000"
       d="m 152.54012,143.96169 a 0.73542644,0.55684513 0 0 1 -0.73543,0.55684 0.73542644,0.55684513 0 0 1 -0.73543,-0.55684 0.73542644,0.55684513 0 0 1 0.73543,-0.55685 0.73542644,0.55684513 0 0 1 0.73543,0.55685 z" />
    <path
       id="path1086-8"
       style="fill:#f1e98f;fill-opacity:1;stroke:#faba20;stroke-width:0.264999;stroke-miterlimit:4;stroke-dasharray:none;stroke-opacity:1;stop-color:#000000"
       d="m 152.58736,149.34785 a 0.73542644,0.55684513 0 0 1 -0.73543,0.55684 0.73542644,0.55684513 0 0 1 -0.73543,-0.55684 0.73542644,0.55684513 0 0 1 0.73543,-0.55685 0.73542644,0.55684513 0 0 1 0.73543,0.55685 z" />
    <path
       style="fill:#fbfbfb;fill-opacity:1;stroke:#8c8573;stroke-width:0.265;stroke-linecap:butt;stroke-linejoin:miter;stroke-miterlimit:4;stroke-dasharray:none;stroke-opacity:1"
       d="m 139.00074,125.96057 5.4334,0.18899 c 0,0 0.75595,4.44122 -2.83482,4.15773 -3.59077,-0.28348 -2.59858,-4.34672 -2.59858,-4.34672 z"
       id="path1140"
       sodipodi:nodetypes="ccsc" />
    <ellipse
       style="fill:#fbefcb;fill-opacity:1;stroke:none;stroke-width:0.264999;stroke-miterlimit:4;stroke-dasharray:none;stroke-opacity:1;stop-color:#000000"
       id="path1161"
       cx="180.1731"
       cy="118.15656"
       rx="7.0599966"
       ry="6.7480779" />
    <rect
       style="fill:#fbfbfb;fill-opacity:1;stroke:#8c8573;stroke-width:0.264999;stroke-miterlimit:4;stroke-dasharray:none;stroke-opacity:1;stop-color:#000000"
       id="rect1159"
       width="17.008928"
       height="9.3549109"
       x="205.17924"
       y="35.913994"
       rx="3.2758062"
       ry="4.110487"
       transform="rotate(24.525812)" />
    <g
       id="g968">
      <path
         id="path932"
         style="fill:#fbefcb;fill-opacity:1;stroke:none;stroke-width:0.264999;stop-color:#000000"
         d="m 51.452007,117.38522 a 2.1969867,2.5749626 0 0 1 -2.196987,2.57497 2.1969867,2.5749626 0 0 1 -2.196987,-2.57497 2.1969867,2.5749626 0 0 1 2.196987,-2.57496 2.1969867,2.5749626 0 0 1 2.196987,2.57496 z" />
      <path
         id="path881"
         style="fill:#fbefcb;stroke-width:0.264999;stop-color:#000000"
         d="m 72.029138,115.86134 a 11.22532,11.22532 0 0 1 -11.22532,11.22532 11.22532,11.22532 0 0 1 -11.22532,-11.22532 11.22532,11.22532 0 0 1 11.22532,-11.22532 11.22532,11.22532 0 0 1 11.22532,11.22532 z" />
      <path
         id="path932-8"
         style="fill:#fbefcb;fill-opacity:1;stroke:none;stroke-width:0.264999;stop-color:#000000"
         d="m 74.059711,117.17262 a 2.1969867,2.5749626 0 0 1 -2.196987,2.57497 2.1969867,2.5749626 0 0 1 -2.196986,-2.57497 2.1969867,2.5749626 0 0 1 2.196986,-2.57496 2.1969867,2.5749626 0 0 1 2.196987,2.57496 z" />
      <path
         id="path902"
         style="fill:#99c1f1;fill-opacity:1;stroke:none;stroke-width:0.264583px;stroke-linecap:butt;stroke-linejoin:miter;stroke-opacity:1"
         d="m 70.079959,122.18272 c 2.359509,-3.38693 2.592636,-8.09264 0.578776,-11.69593 -1.931141,-3.62975 -5.988396,-5.97893 -10.097574,-5.84822 -4.126815,0.0475 -8.092511,2.58972 -9.856248,6.32158 -1.068496,2.18948 -1.39284,4.73178 -0.904853,7.11895 2.350616,1.67114 4.920361,3.30622 7.845303,3.64798 1.132361,0.26684 2.312027,-0.45968 3.197484,-0.67511 2.750016,1.63078 6.17161,1.92681 9.237112,1.13075 z" />
      <path
         id="path883"
         style="fill:#85b5ee;fill-opacity:1;stroke-width:0.264999;stop-color:#000000"
         d="m 68.821904,107.6428 a 6.2140164,6.2140164 0 0 1 -6.214017,6.21402 6.2140164,6.2140164 0 0 1 -6.214016,-6.21402 6.2140164,6.2140164 0 0 1 6.214016,-6.21402 6.2140164,6.2140164 0 0 1 6.214017,6.21402 z" />
      <path
         id="rect930"
         style="fill:#030a12;fill-opacity:1;stroke:none;stroke-width:0.146271;stop-color:#000000"
         d="m 58.33333,124.64947 h 4.84075 c 0.593241,0 1.070833,0.11803 1.070833,0.26464 v 0.67179 c 0,0.14662 -0.477592,0.26465 -1.070833,0.26465 h -4.84075 c -0.593242,0 -1.070833,-0.11803 -1.070833,-0.26465 v -0.67179 c 0,-0.14661 0.477591,-0.26464 1.070833,-0.26464 z" />
      <path
         id="path885"
         style="fill:#daf5fb;fill-opacity:1;stroke-width:0.264999;stop-color:#000000"
         d="m 59.333831,125.04872 a 4.543582,1.9377041 0 0 1 -4.543582,1.93771 4.543582,1.9377041 0 0 1 -4.543582,-1.93771 4.543582,1.9377041 0 0 1 4.543582,-1.9377 4.543582,1.9377041 0 0 1 4.543582,1.9377 z" />
      <path
         id="path885-1"
         style="fill:#daf5fb;fill-opacity:1;stroke-width:0.264999;stop-color:#000000"
         d="m 71.127093,125.14896 a 4.543582,1.9377041 0 0 1 -4.543582,1.9377 4.543582,1.9377041 0 0 1 -4.543582,-1.9377 4.543582,1.9377041 0 0 1 4.543582,-1.93771 4.543582,1.9377041 0 0 1 4.543582,1.93771 z" />
      <path
         id="path911"
         style="fill:none;fill-rule:evenodd;stroke:#000000;stroke-width:0.264583"
         transform="matrix(0.42978966,0,0,0.17553322,44.151328,111.65345)"
         d="m 23.786989,78.176331 c -0.254099,-0.48954 0.534526,-0.584042 0.813647,-0.42233 0.7564,0.438231 0.557252,1.521751 0.03101,2.049623 -0.94132,0.944239 -2.499315,0.596499 -3.285599,-0.360305 -1.153903,-1.40415 -0.641374,-3.491754 0.751623,-4.521576 1.856645,-1.37259 4.489684,-0.688913 5.757551,1.142941 1.595482,2.305201 0.737887,5.490283 -1.534258,6.993527 -2.751872,1.820631 -6.492395,0.7877 -8.229503,-1.925575 -2.047122,-3.197501 -0.838042,-7.495453 2.316893,-9.46548 3.642497,-2.274473 8.499142,-0.888737 10.701455,2.708211 2.360359,3.855076 1.118638,8.963246 -2.511968,11.551778" />
      <path
         id="path911-9"
         style="fill:none;fill-rule:evenodd;stroke:#000000;stroke-width:0.264583"
         transform="matrix(0.42978967,0,0,0.17553322,56.235505,111.81779)"
         d="m 23.786989,78.176331 c -0.254099,-0.48954 0.534526,-0.584042 0.813647,-0.42233 0.7564,0.438231 0.557252,1.521751 0.03101,2.049623 -0.94132,0.944239 -2.499315,0.596499 -3.285599,-0.360305 -1.153903,-1.40415 -0.641374,-3.491754 0.751623,-4.521576 1.856645,-1.37259 4.489684,-0.688913 5.757551,1.142941 1.595482,2.305201 0.737887,5.490283 -1.534258,6.993527 -2.751872,1.820631 -6.492395,0.7877 -8.229503,-1.925575 -2.047122,-3.197501 -0.838042,-7.495453 2.316893,-9.46548 3.642497,-2.274473 8.499142,-0.888737 10.701455,2.708211 2.360359,3.855076 1.118638,8.963246 -2.511968,11.551778" />
    </g>
  </g>
</svg>
