<?xml version="1.0" encoding="UTF-8" standalone="no"?>
<svg
   xmlns:dc="http://purl.org/dc/elements/1.1/"
   xmlns:cc="http://creativecommons.org/ns#"
   xmlns:rdf="http://www.w3.org/1999/02/22-rdf-syntax-ns#"
   xmlns:svg="http://www.w3.org/2000/svg"
   xmlns="http://www.w3.org/2000/svg"
   xmlns:sodipodi="http://sodipodi.sourceforge.net/DTD/sodipodi-0.dtd"
   xmlns:inkscape="http://www.inkscape.org/namespaces/inkscape"
   width="210mm"
   height="297mm"
   viewBox="0 0 210 297"
   version="1.1"
   id="svg8"
   inkscape:version="1.0.1 (3bc2e813f5, 2020-09-07)"
   sodipodi:docname="prof sport 2.svg"
   inkscape:export-filename="C:\Users\Loula\Desktop\image.png"
   inkscape:export-xdpi="387.07959"
   inkscape:export-ydpi="387.07959">
  <defs
     id="defs2" />
  <sodipodi:namedview
     id="base"
     pagecolor="#ffffff"
     bordercolor="#666666"
     borderopacity="1.0"
     inkscape:pageopacity="0.0"
     inkscape:pageshadow="2"
     inkscape:zoom="1.979899"
     inkscape:cx="325.85767"
     inkscape:cy="178.0353"
     inkscape:document-units="mm"
     inkscape:current-layer="layer1"
     inkscape:document-rotation="0"
     showgrid="false"
     inkscape:window-width="1920"
     inkscape:window-height="986"
     inkscape:window-x="-11"
     inkscape:window-y="-11"
     inkscape:window-maximized="1" />
  <metadata
     id="metadata5">
    <rdf:RDF>
      <cc:Work
         rdf:about="">
        <dc:format>image/svg+xml</dc:format>
        <dc:type
           rdf:resource="http://purl.org/dc/dcmitype/StillImage" />
        <dc:title></dc:title>
      </cc:Work>
    </rdf:RDF>
  </metadata>
  <g
     inkscape:label="Calque 1"
     inkscape:groupmode="layer"
     id="layer1">
    <rect
       style="fill:#393939;stroke-width:1;stop-color:#000000;fill-opacity:1"
       id="rect1012-1"
       width="12.473214"
       height="32.127975"
       x="109.99107"
       y="67.56324"
       rx="1.0063797"
       inkscape:export-filename="C:\Users\Loula\Desktop\prof sport.png"
       inkscape:export-xdpi="387"
       inkscape:export-ydpi="387" />
    <rect
       style="fill:#c33339;fill-opacity:1;stroke-width:0.912871;stop-color:#000000"
       id="rect1058"
       width="8.9769344"
       height="5.4806542"
       x="115.8497"
       y="94.683037"
       rx="0.83864975"
       inkscape:export-filename="C:\Users\Loula\Desktop\prof sport.png"
       inkscape:export-xdpi="387"
       inkscape:export-ydpi="387" />
    <rect
       style="fill:#393939;stroke-width:1;stop-color:#000000;fill-opacity:1"
       id="rect1012"
       width="12.473214"
       height="32.127975"
       x="80.508926"
       y="68.130211"
       rx="1.0063797"
       inkscape:export-filename="C:\Users\Loula\Desktop\prof sport.png"
       inkscape:export-xdpi="387"
       inkscape:export-ydpi="387" />
    <rect
       style="fill:#c33339;fill-opacity:1;stroke-width:1.29395;stop-color:#000000"
       id="rect1056"
       width="16.928782"
       height="5.8586307"
       x="78.41571"
       y="94.494049"
       rx="1.6849977"
       inkscape:export-filename="C:\Users\Loula\Desktop\prof sport.png"
       inkscape:export-xdpi="387"
       inkscape:export-ydpi="387" />
    <path
       id="path902"
       style="fill:#4a4a4a;fill-opacity:1;stroke:none;stroke-width:2.75335;stop-color:#000000"
       d="m 97.44738,62.933037 h 7.51148 c 2.47375,0 3.629,1.800158 4.46524,3.76119 l 12.47321,29.250435 c 0.83624,1.961028 -0.1022,4.670738 -2.57535,4.716328 l -34.536782,0.63676 c -2.473151,0.0456 -4.084814,-2.254077 -3.331312,-4.238758 L 92.98214,66.694227 c 0.753504,-1.984682 1.991497,-3.76119 4.46524,-3.76119 z"
       sodipodi:nodetypes="sssssssss"
       inkscape:export-filename="C:\Users\Loula\Desktop\prof sport.png"
       inkscape:export-xdpi="387.07959"
       inkscape:export-ydpi="387.07959" />
    <ellipse
       style="fill:#fbf2d6;stroke:none;stroke-width:3;stop-color:#000000;fill-opacity:1"
       id="path833"
       cx="101.39211"
       cy="43.183777"
       rx="23.529018"
       ry="23.340031"
       inkscape:export-filename="C:\Users\Loula\Desktop\prof sport.png"
       inkscape:export-xdpi="387.07959"
       inkscape:export-ydpi="387.07959" />
    <ellipse
       style="fill:#165c3c;fill-opacity:1;stroke:none;stroke-width:3;stop-color:#000000"
       id="path880"
       cx="90.241814"
       cy="46.963539"
       rx="4.2522321"
       ry="3.8742559"
       inkscape:export-filename="C:\Users\Loula\Desktop\prof sport.png"
       inkscape:export-xdpi="387.07959"
       inkscape:export-ydpi="387.07959" />
    <ellipse
       style="fill:#165c3c;fill-opacity:1;stroke:none;stroke-width:3;stop-color:#000000"
       id="path880-3"
       cx="112.16444"
       cy="47.058041"
       rx="4.2522321"
       ry="3.8742561"
       inkscape:export-filename="C:\Users\Loula\Desktop\prof sport.png"
       inkscape:export-xdpi="387.07959"
       inkscape:export-ydpi="387.07959" />
    <path
       id="rect879"
       style="fill:#2ec27e;stroke-width:0.93041;stop-color:#000000"
       d="m 123.76144,33.784313 a 23.529018,20.204589 0 0 0 -0.0341,-0.08991 23.529018,20.204589 0 0 0 -0.0667,-0.170887 23.529018,20.204589 0 0 0 -0.0692,-0.170437 23.529018,20.204589 0 0 0 -0.0703,-0.170438 23.529018,20.204589 0 0 0 -0.0724,-0.169096 23.529018,20.204589 0 0 0 -0.0739,-0.169095 23.529018,20.204589 0 0 0 -0.076,-0.168649 23.529018,20.204589 0 0 0 -0.0775,-0.167753 23.529018,20.204589 0 0 0 -0.0796,-0.16686 23.529018,20.204589 0 0 0 -0.0811,-0.166858 23.529018,20.204589 0 0 0 -0.0827,-0.165965 23.529018,20.204589 0 0 0 -0.0842,-0.165071 23.529018,20.204589 0 0 0 -0.0863,-0.16462 23.529018,20.204589 0 0 0 -0.0879,-0.164176 23.529018,20.204589 0 0 0 -0.0899,-0.16328 23.529018,20.204589 0 0 0 -0.0915,-0.162387 23.529018,20.204589 0 0 0 -0.093,-0.161938 23.529018,20.204589 0 0 0 -0.0946,-0.161043 23.529018,20.204589 0 0 0 -0.0961,-0.160596 23.529018,20.204589 0 0 0 -0.0982,-0.159702 23.529018,20.204589 0 0 0 -0.0997,-0.158807 23.529018,20.204589 0 0 0 -0.10129,-0.158361 23.529018,20.204589 0 0 0 -0.10335,-0.157465 23.529018,20.204589 0 0 0 -0.10438,-0.156569 23.529018,20.204589 0 0 0 -0.10646,-0.155676 23.529018,20.204589 0 0 0 -0.10749,-0.154781 23.529018,20.204589 0 0 0 -0.10955,-0.154334 23.529018,20.204589 0 0 0 -0.1111,-0.152992 23.529018,20.204589 0 0 0 -0.11266,-0.152542 23.529018,20.204589 0 0 0 -0.1142,-0.15165 23.529018,20.204589 0 0 0 -0.11576,-0.150754 23.529018,20.204589 0 0 0 -0.11782,-0.149414 23.529018,20.204589 0 0 0 -0.11885,-0.148965 23.529018,20.204589 0 0 0 -0.12041,-0.14807 23.529018,20.204589 0 0 0 -0.12196,-0.147177 23.529018,20.204589 0 0 0 -0.12351,-0.145834 23.529018,20.204589 0 0 0 -0.12505,-0.144938 23.529018,20.204589 0 0 0 -0.12661,-0.144493 23.529018,20.204589 0 0 0 -0.12816,-0.143149 23.529018,20.204589 0 0 0 -0.12971,-0.142255 23.529018,20.204589 0 0 0 -0.13074,-0.140914 23.529018,20.204589 0 0 0 -0.13229,-0.140466 23.529018,20.204589 0 0 0 -0.13436,-0.139123 23.529018,20.204589 0 0 0 -0.13539,-0.137782 23.529018,20.204589 0 0 0 -0.13642,-0.137334 23.529018,20.204589 0 0 0 -0.1385,-0.135993 23.529018,20.204589 0 0 0 -0.13952,-0.134652 23.529018,20.204589 0 0 0 -0.14108,-0.134201 23.529018,20.204589 0 0 0 -0.14263,-0.132862 23.529018,20.204589 0 0 0 -0.14366,-0.131519 23.529018,20.204589 0 0 0 -0.14521,-0.130624 23.529018,20.204589 0 0 0 -0.14624,-0.129284 23.529018,20.204589 0 0 0 -0.1478,-0.128386 23.529018,20.204589 0 0 0 -0.14934,-0.127046 23.529018,20.204589 0 0 0 -0.15038,-0.126151 23.529018,20.204589 0 0 0 -0.15193,-0.124808 23.529018,20.204589 0 0 0 -0.15296,-0.123914 23.529018,20.204589 0 0 0 -0.15451,-0.122573 23.529018,20.204589 0 0 0 -0.15555,-0.12123 23.529018,20.204589 0 0 0 -0.1571,-0.120335 23.529018,20.204589 0 0 0 -0.15813,-0.118993 23.529018,20.204589 0 0 0 -0.15916,-0.117652 23.529018,20.204589 0 0 0 -0.16071,-0.116309 23.529018,20.204589 0 0 0 -0.16175,-0.115415 23.529018,20.204589 0 0 0 -0.1633,-0.114072 23.529018,20.204589 0 0 0 -0.16381,-0.112731 23.529018,20.204589 0 0 0 -0.16537,-0.111388 23.529018,20.204589 0 0 0 -0.16691,-0.110047 23.529018,20.204589 0 0 0 -0.16743,-0.109152 23.529018,20.204589 0 0 0 -0.16899,-0.107362 23.529018,20.204589 0 0 0 -0.16949,-0.106468 23.529018,20.204589 0 0 0 -0.17105,-0.105126 23.529018,20.204589 0 0 0 -0.17209,-0.103783 23.529018,20.204589 0 0 0 -0.17311,-0.102442 23.529018,20.204589 0 0 0 -0.17415,-0.101099 23.529018,20.204589 0 0 0 -0.17519,-0.09976 23.529018,20.204589 0 0 0 -0.17673,-0.09797 23.529018,20.204589 0 0 0 -0.17725,-0.09707 23.529018,20.204589 0 0 0 -0.17828,-0.09573 23.529018,20.204589 0 0 0 -0.17932,-0.09439 23.529018,20.204589 0 0 0 -0.17983,-0.09305 23.529018,20.204589 0 0 0 -0.18139,-0.09126 23.529018,20.204589 0 0 0 -0.18242,-0.09036 23.529018,20.204589 0 0 0 -0.18293,-0.08857 23.529018,20.204589 0 0 0 -0.18397,-0.08723 23.529018,20.204589 0 0 0 -0.185,-0.08589 23.529018,20.204589 0 0 0 -0.18552,-0.08455 23.529018,20.204589 0 0 0 -0.18707,-0.08321 23.529018,20.204589 0 0 0 -0.18706,-0.08142 23.529018,20.204589 0 0 0 -0.18862,-0.08008 23.529018,20.204589 0 0 0 -0.18914,-0.07873 23.529018,20.204589 0 0 0 -0.19017,-0.07739 23.529018,20.204589 0 0 0 -0.19069,-0.0756 23.529018,20.204589 0 0 0 -0.19172,-0.07471 23.529018,20.204589 0 0 0 -0.19223,-0.07292 23.529018,20.204589 0 0 0 -0.19327,-0.07113 23.529018,20.204589 0 0 0 -0.19379,-0.06979 23.529018,20.204589 0 0 0 -0.1943,-0.06844 23.529018,20.204589 0 0 0 -0.19534,-0.0671 23.529018,20.204589 0 0 0 -0.19585,-0.06531 23.529018,20.204589 0 0 0 -0.19689,-0.06397 23.529018,20.204589 0 0 0 -0.19689,-0.06218 23.529018,20.204589 0 0 0 -0.19792,-0.06129 23.529018,20.204589 0 0 0 -0.19895,-0.05905 23.529018,20.204589 0 0 0 -0.19896,-0.05815 23.529018,20.204589 0 0 0 -0.19947,-0.05592 23.529018,20.204589 0 0 0 -0.2005,-0.05502 23.529018,20.204589 0 0 0 -0.20102,-0.05323 23.529018,20.204589 0 0 0 -0.20154,-0.05145 23.529018,20.204589 0 0 0 -0.20154,-0.0501 23.529018,20.204589 0 0 0 -0.20257,-0.04876 23.529018,20.204589 0 0 0 -0.20309,-0.04697 23.529018,20.204589 0 0 0 -0.2036,-0.04563 23.529018,20.204589 0 0 0 -0.20361,-0.04384 23.529018,20.204589 0 0 0 -0.20464,-0.0425 23.529018,20.204589 0 0 0 -0.20464,-0.04071 23.529018,20.204589 0 0 0 -0.20515,-0.03937 23.529018,20.204589 0 0 0 -0.20567,-0.03758 23.529018,20.204589 0 0 0 -0.20619,-0.03579 23.529018,20.204589 0 0 0 -0.20619,-0.03445 23.529018,20.204589 0 0 0 -0.20671,-0.0331 23.529018,20.204589 0 0 0 -0.20722,-0.03131 23.529018,20.204589 0 0 0 -0.20722,-0.02952 23.529018,20.204589 0 0 0 -0.20774,-0.02818 23.529018,20.204589 0 0 0 -0.20774,-0.02639 23.529018,20.204589 0 0 0 -0.20826,-0.02505 23.529018,20.204589 0 0 0 -0.20877,-0.02326 23.529018,20.204589 0 0 0 -0.20826,-0.02192 23.529018,20.204589 0 0 0 -0.20928,-0.02013 23.529018,20.204589 0 0 0 -0.20878,-0.01834 23.529018,20.204589 0 0 0 -0.20929,-0.017 23.529018,20.204589 0 0 0 -0.2098,-0.01521 23.529018,20.204589 0 0 0 -0.20929,-0.01387 23.529018,20.204589 0 0 0 -0.20981,-0.01208 23.529018,20.204589 0 0 0 -0.21032,-0.01029 23.529018,20.204589 0 0 0 -0.20981,-0.0089 23.529018,20.204589 0 0 0 -0.2098,-0.0072 23.529018,20.204589 0 0 0 -0.21033,-0.0058 23.529018,20.204589 0 0 0 -0.21032,-0.004 23.529018,20.204589 0 0 0 -0.20981,-0.0022 23.529018,20.204589 0 0 0 -0.21032,-8.95e-4 23.529018,20.204589 0 0 0 -0.16898,4.48e-4 23.529018,20.204589 0 0 0 -0.21033,0.0022 23.529018,20.204589 0 0 0 -0.2098,0.0036 23.529018,20.204589 0 0 0 -0.21032,0.0054 23.529018,20.204589 0 0 0 -0.21033,0.0072 23.529018,20.204589 0 0 0 -0.2098,0.0085 23.529018,20.204589 0 0 0 -0.209811,0.0098 23.529018,20.204589 0 0 0 -0.209806,0.01208 23.529018,20.204589 0 0 0 -0.209807,0.01342 23.529018,20.204589 0 0 0 -0.209288,0.01476 23.529018,20.204589 0 0 0 -0.209291,0.01655 23.529018,20.204589 0 0 0 -0.209288,0.01834 23.529018,20.204589 0 0 0 -0.208775,0.01968 23.529018,20.204589 0 0 0 -0.208772,0.02147 23.529018,20.204589 0 0 0 -0.208772,0.02281 23.529018,20.204589 0 0 0 -0.208256,0.0246 23.529018,20.204589 0 0 0 -0.20774,0.02639 23.529018,20.204589 0 0 0 -0.207738,0.02773 23.529018,20.204589 0 0 0 -0.20774,0.02952 23.529018,20.204589 0 0 0 -0.207222,0.03087 23.529018,20.204589 0 0 0 -0.206705,0.03266 23.529018,20.204589 0 0 0 -0.20619,0.034 23.529018,20.204589 0 0 0 -0.20619,0.03579 23.529018,20.204589 0 0 0 -0.205671,0.03758 23.529018,20.204589 0 0 0 -0.205155,0.03892 23.529018,20.204589 0 0 0 -0.205156,0.04026 23.529018,20.204589 0 0 0 -0.204123,0.04205 23.529018,20.204589 0 0 0 -0.204121,0.04339 23.529018,20.204589 0 0 0 -0.203605,0.04518 23.529018,20.204589 0 0 0 -0.203089,0.04697 23.529018,20.204589 0 0 0 -0.20257,0.04831 23.529018,20.204589 0 0 0 -0.202057,0.04965 23.529018,20.204589 0 0 0 -0.201538,0.05145 23.529018,20.204589 0 0 0 -0.20102,0.05279 23.529018,20.204589 0 0 0 -0.200504,0.05457 23.529018,20.204589 0 0 0 -0.199988,0.05592 23.529018,20.204589 0 0 0 -0.198956,0.05771 23.529018,20.204589 0 0 0 -0.198953,0.05905 23.529018,20.204589 0 0 0 -0.197922,0.06039 23.529018,20.204589 0 0 0 -0.197403,0.06218 23.529018,20.204589 0 0 0 -0.196887,0.06352 23.529018,20.204589 0 0 0 -0.195855,0.06531 23.529018,20.204589 0 0 0 -0.195337,0.06665 23.529018,20.204589 0 0 0 -0.194818,0.068 23.529018,20.204589 0 0 0 -0.193789,0.06979 23.529018,20.204589 0 0 0 -0.19327,0.07113 23.529018,20.204589 0 0 0 -0.192751,0.07247 23.529018,20.204589 0 0 0 -0.19172,0.07426 23.529018,20.204589 0 0 0 -0.190685,0.07515 23.529018,20.204589 0 0 0 -0.19017,0.07694 23.529018,20.204589 0 0 0 -0.189653,0.07873 23.529018,20.204589 0 0 0 -0.188103,0.07963 23.529018,20.204589 0 0 0 -0.1881,0.08142 23.529018,20.204589 0 0 0 -0.186552,0.08276 23.529018,20.204589 0 0 0 -0.186037,0.0841 23.529018,20.204589 0 0 0 -0.185002,0.08589 23.529018,20.204589 0 0 0 -0.184483,0.08678 23.529018,20.204589 0 0 0 -0.182936,0.08857 23.529018,20.204589 0 0 0 -0.182417,0.08992 23.529018,20.204589 0 0 0 -0.181385,0.09126 23.529018,20.204589 0 0 0 -0.18035,0.0926 23.529018,20.204589 0 0 0 -0.179835,0.09394 23.529018,20.204589 0 0 0 -0.178284,0.09528 23.529018,20.204589 0 0 0 -0.17725,0.09707 23.529018,20.204589 0 0 0 -0.176734,0.09797 23.529018,20.204589 0 0 0 -0.175699,0.09931 23.529018,20.204589 0 0 0 -0.174149,0.1011 23.529018,20.204589 0 0 0 -0.173116,0.101994 23.529018,20.204589 0 0 0 -0.172599,0.103337 23.529018,20.204589 0 0 0 -0.17105,0.104678 23.529018,20.204589 0 0 0 -0.170014,0.10602 23.529018,20.204589 0 0 0 -0.168984,0.10781 23.529018,20.204589 0 0 0 -0.167947,0.108257 23.529018,20.204589 0 0 0 -0.166915,0.110047 23.529018,20.204589 0 0 0 -0.165364,0.111388 23.529018,20.204589 0 0 0 -0.16433,0.112283 23.529018,20.204589 0 0 0 -0.163298,0.114073 23.529018,20.204589 0 0 0 -0.162264,0.114967 23.529018,20.204589 0 0 0 -0.160716,0.11631 23.529018,20.204589 0 0 0 -0.159679,0.117204 23.529018,20.204589 0 0 0 -0.15813,0.118993 23.529018,20.204589 0 0 0 -0.157613,0.119888 23.529018,20.204589 0 0 0 -0.155546,0.120783 23.529018,20.204589 0 0 0 -0.15503,0.122572 23.529018,20.204589 0 0 0 -0.152961,0.123467 23.529018,20.204589 0 0 0 -0.152447,0.124809 23.529018,20.204589 0 0 0 -0.150379,0.125704 23.529018,20.204589 0 0 0 -0.14986,0.127044 23.529018,20.204589 0 0 0 -0.147796,0.127942 23.529018,20.204589 0 0 0 -0.146759,0.129281 23.529018,20.204589 0 0 0 -0.145727,0.130177 23.529018,20.204589 0 0 0 -0.143661,0.13152 23.529018,20.204589 0 0 0 -0.143145,0.132861 23.529018,20.204589 0 0 0 -0.141076,0.133308 23.529018,20.204589 0 0 0 -0.140044,0.135097 23.529018,20.204589 0 0 0 -0.138493,0.135546 23.529018,20.204589 0 0 0 -0.136941,0.136885 23.529018,20.204589 0 0 0 -0.135911,0.137784 23.529018,20.204589 0 0 0 -0.133842,0.139123 23.529018,20.204589 0 0 0 -0.132808,0.140019 23.529018,20.204589 0 0 0 -0.131257,0.140912 23.529018,20.204589 0 0 0 -0.130225,0.141808 23.529018,20.204589 0 0 0 -0.128156,0.14315 23.529018,20.204589 0 0 0 -0.126609,0.144046 23.529018,20.204589 0 0 0 -0.125573,0.144938 23.529018,20.204589 0 0 0 -0.124024,0.145835 23.529018,20.204589 0 0 0 -0.121957,0.146727 23.529018,20.204589 0 0 0 -0.120922,0.147625 23.529018,20.204589 0 0 0 -0.119373,0.148966 23.529018,20.204589 0 0 0 -0.117821,0.149411 23.529018,20.204589 0 0 0 -0.115755,0.150755 23.529018,20.204589 0 0 0 -0.114724,0.151202 23.529018,20.204589 0 0 0 -0.11317,0.152097 23.529018,20.204589 0 0 0 -0.111104,0.153438 23.529018,20.204589 0 0 0 -0.110072,0.153887 23.529018,20.204589 0 0 0 -0.108003,0.154781 23.529018,20.204589 0 0 0 -0.106452,0.155676 23.529018,20.204589 0 0 0 -0.104905,0.156123 23.529018,20.204589 0 0 0 -0.103351,0.157465 23.529018,20.204589 0 0 0 -0.101804,0.157911 23.529018,20.204589 0 0 0 -0.100253,0.158807 23.529018,20.204589 0 0 0 -0.09818,0.159254 23.529018,20.204589 0 0 0 -0.09663,0.160598 23.529018,20.204589 0 0 0 -0.09509,0.161043 23.529018,20.204589 0 0 0 -0.09353,0.161491 23.529018,20.204589 0 0 0 -0.09147,0.162385 23.529018,20.204589 0 0 0 -0.08992,0.16328 23.529018,20.204589 0 0 0 -0.08837,0.163729 23.529018,20.204589 0 0 0 -0.08682,0.164623 23.529018,20.204589 0 0 0 -0.08475,0.165069 23.529018,20.204589 0 0 0 -0.0832,0.165964 23.529018,20.204589 0 0 0 -0.08113,0.166411 23.529018,20.204589 0 0 0 -0.07958,0.167307 23.529018,20.204589 0 0 0 -0.07803,0.167307 23.529018,20.204589 0 0 0 -0.07648,0.168649 23.529018,20.204589 0 0 0 -0.07441,0.168649 23.529018,20.204589 0 0 0 -0.07235,0.169542 23.529018,20.204589 0 0 0 -0.0708,0.169991 23.529018,20.204589 0 0 0 -0.06925,0.170438 23.529018,20.204589 0 0 0 -0.0677,0.170884 23.529018,20.204589 0 0 0 -0.04702,0.123466 z"
       inkscape:export-filename="C:\Users\Loula\Desktop\prof sport.png"
       inkscape:export-xdpi="387"
       inkscape:export-ydpi="387" />
    <rect
       style="fill:#8ff0a4;stroke-width:1;stop-color:#000000"
       id="rect1037"
       width="12.095239"
       height="6.7090774"
       x="84.383179"
       y="37.986607"
       rx="1.0063797"
       inkscape:export-filename="C:\Users\Loula\Desktop\prof sport.png"
       inkscape:export-xdpi="387"
       inkscape:export-ydpi="387" />
    <rect
       style="fill:#8ff0a4;stroke-width:1;stop-color:#000000"
       id="rect1037-1"
       width="12.095239"
       height="6.7090774"
       x="106.11681"
       y="37.844864"
       rx="1.0063797"
       inkscape:export-filename="C:\Users\Loula\Desktop\prof sport.png"
       inkscape:export-xdpi="387"
       inkscape:export-ydpi="387" />
    <path
       id="path1065"
       style="fill:#393939;fill-opacity:1;stroke-width:3.77953;stop-color:#000000"
       d="M 376.42773 381.82617 L 389.64258 381.58203 L 389.64258 265.58984 C 389.64258 263.48263 387.94704 261.78516 385.83984 261.78516 L 380.23242 261.78516 C 378.12518 261.78516 376.42773 263.48263 376.42773 265.58984 L 376.42773 381.82617 z "
       transform="scale(0.26458333)"
       inkscape:export-filename="C:\Users\Loula\Desktop\prof sport.png"
       inkscape:export-xdpi="387"
       inkscape:export-ydpi="387" />
    <rect
       style="fill:#cc353c;fill-opacity:1;stroke-width:1;stop-color:#000000"
       id="rect1054"
       width="23.529018"
       height="5.5751486"
       x="89.296875"
       y="65.20089"
       rx="1.0063797"
       inkscape:export-filename="C:\Users\Loula\Desktop\prof sport.png"
       inkscape:export-xdpi="387"
       inkscape:export-ydpi="387" />
    <path
       sodipodi:type="star"
       style="fill:#cc353c;fill-opacity:1;stroke:none;stroke-width:3;stop-color:#000000"
       id="path897-7"
       sodipodi:sides="3"
       sodipodi:cx="100.54167"
       sodipodi:cy="57.074406"
       sodipodi:r1="4.2259021"
       sodipodi:r2="2.112951"
       sodipodi:arg1="0.46364761"
       sodipodi:arg2="1.5108452"
       inkscape:flatsided="true"
       inkscape:rounded="0.08"
       inkscape:randomized="0"
       d="m 104.32143,58.964287 c -0.26187,0.523739 -6.983687,0.927203 -7.306324,0.438548 -0.322637,-0.488655 2.688864,-6.511656 3.273374,-6.546739 0.5845,-0.03508 4.29482,5.584451 4.03295,6.108191 z"
       inkscape:transform-center-x="-0.71874823"
       inkscape:transform-center-y="-2.4138312"
       inkscape:export-filename="C:\Users\Loula\Desktop\prof sport.png"
       inkscape:export-xdpi="387.07959"
       inkscape:export-ydpi="387.07959"
       transform="matrix(-0.56914865,-0.02489351,0.0329364,-0.43016564,164.04405,103.48255)" />
    <rect
       style="fill:#cc353c;fill-opacity:1;stroke-width:0.708152;stop-color:#000000"
       id="rect1083"
       width="4.9478683"
       height="0.81177509"
       x="106.2113"
       y="79.697151"
       rx="0.76370651"
       inkscape:export-filename="C:\Users\Loula\Desktop\prof sport.png"
       inkscape:export-xdpi="387"
       inkscape:export-ydpi="387" />
    <rect
       style="fill:#cc353c;fill-opacity:1;stroke-width:0.708152;stop-color:#000000"
       id="rect1083-2"
       width="4.9478683"
       height="0.81177509"
       x="106.31886"
       y="78.417046"
       rx="0.76370651"
       inkscape:export-filename="C:\Users\Loula\Desktop\prof sport.png"
       inkscape:export-xdpi="387"
       inkscape:export-ydpi="387" />
    <path
       style="fill:none;stroke:#000000;stroke-width:1;stroke-linecap:butt;stroke-linejoin:miter;stroke-miterlimit:4;stroke-dasharray:none;stroke-opacity:1"
       d="m 96.761903,59.909226 3.496277,-4.063243 3.40178,3.96875"
       id="path1100"
       inkscape:export-filename="C:\Users\Loula\Desktop\prof sport.png"
       inkscape:export-xdpi="387"
       inkscape:export-ydpi="387" />
    <rect
       style="fill:#8ff0a4;stroke-width:1;stop-color:#000000"
       id="rect877"
       width="11.893494"
       height="19.377041"
       x="94.613411"
       y="9.7553377"
       rx="1.0063797"
       inkscape:export-filename="C:\Users\Loula\Desktop\prof sport.png"
       inkscape:export-xdpi="387"
       inkscape:export-ydpi="387" />
    <path
       id="path918"
       style="fill:#2ec27e;stroke-width:1.1428;stop-color:#000000;fill-opacity:1"
       d="m 80.498143,31.67145 a 30.728854,23.340031 0 0 0 -0.09853,0.13281 30.728854,23.340031 0 0 0 -0.132956,0.182417 30.728854,23.340031 0 0 0 -0.13093,0.183452 30.728854,23.340031 0 0 0 -0.128229,0.183967 30.728854,23.340031 0 0 0 -0.126203,0.185521 30.728854,23.340031 0 0 0 -0.124182,0.186034 30.728854,23.340031 0 0 0 -0.122154,0.186552 30.728854,23.340031 0 0 0 -0.119459,0.187584 30.728854,23.340031 0 0 0 -0.11743,0.188619 30.728854,23.340031 0 0 0 -0.115408,0.189138 30.728854,23.340031 0 0 0 -0.113381,0.190169 30.728854,23.340031 0 0 0 -0.110681,0.190685 30.728854,23.340031 0 0 0 -0.108661,0.19172 30.728854,23.340031 0 0 0 -0.105958,0.192235 30.728854,23.340031 0 0 0 -0.103933,0.193271 30.728854,23.340031 0 0 0 -0.101908,0.19327 30.728854,23.340031 0 0 0 -0.09988,0.19482 30.728854,23.340031 0 0 0 -0.09719,0.194821 30.728854,23.340031 0 0 0 -0.09449,0.195853 30.728854,23.340031 0 0 0 -0.09246,0.196371 30.728854,23.340031 0 0 0 -0.09044,0.196887 30.728854,23.340031 0 0 0 -0.08841,0.197403 30.728854,23.340031 0 0 0 -0.08504,0.197921 30.728854,23.340031 0 0 0 -0.08369,0.198954 30.728854,23.340031 0 0 0 -0.08099,0.199472 30.728854,23.340031 0 0 0 -0.07829,0.199469 30.728854,23.340031 0 0 0 -0.07626,0.200507 30.728854,23.340031 0 0 0 -0.07424,0.201019 30.728854,23.340031 0 0 0 -0.07154,0.201023 30.728854,23.340031 0 0 0 -0.06884,0.202054 30.728854,23.340031 0 0 0 -0.06682,0.202055 30.728854,23.340031 0 0 0 -0.06479,0.202573 30.728854,23.340031 0 0 0 -0.06209,0.203604 30.728854,23.340031 0 0 0 -0.05939,0.203089 30.728854,23.340031 0 0 0 -0.05737,0.204121 30.728854,23.340031 0 0 0 -0.05466,0.204639 30.728854,23.340031 0 0 0 -0.05264,0.20464 30.728854,23.340031 0 0 0 -0.04994,0.204636 30.728854,23.340031 0 0 0 -0.04724,0.205674 30.728854,23.340031 0 0 0 -0.04522,0.205671 30.728854,23.340031 0 0 0 -0.04252,0.20619 30.728854,23.340031 0 0 0 -0.04049,0.206187 30.728854,23.340031 0 0 0 -0.0378,0.20619 30.728854,23.340031 0 0 0 -0.03577,0.207222 30.728854,23.340031 0 0 0 -0.03307,0.206706 30.728854,23.340031 0 0 0 -0.03037,0.207224 30.728854,23.340031 0 0 0 -0.02835,0.207737 30.728854,23.340031 0 0 0 -0.02565,0.207741 30.728854,23.340031 0 0 0 -0.0067,0.05839 h 4.389508 c 0.728136,0 1.314015,-0.449122 1.314015,-1.006655 v -7.475513 c 0,-0.557536 -0.585879,-1.006142 -1.314015,-1.006142 z"
       inkscape:export-filename="C:\Users\Loula\Desktop\prof sport.png"
       inkscape:export-xdpi="387"
       inkscape:export-ydpi="387" />
    <ellipse
       style="fill:#fbf2d6;fill-opacity:1;stroke:none;stroke-width:3;stop-color:#000000"
       id="path960"
       cx="75.971367"
       cy="46.404671"
       rx="6.9490075"
       ry="6.11379"
       inkscape:export-xdpi="387"
       inkscape:export-ydpi="387"
       inkscape:export-filename="C:\Users\Loula\Desktop\prof sport.png" />
    <path
       id="path925"
       style="fill:#2ec27e;stroke-width:1.1505;stop-color:#000000;fill-opacity:1"
       d="m 126.20103,40.825414 a 31.144195,23.340031 0 0 0 -0.013,-0.0987 31.144195,23.340031 0 0 0 -0.0301,-0.207221 31.144195,23.340031 0 0 0 -0.0335,-0.206706 31.144195,23.340031 0 0 0 -0.0356,-0.207222 31.144195,23.340031 0 0 0 -0.0376,-0.206189 31.144195,23.340031 0 0 0 -0.0404,-0.206706 31.144195,23.340031 0 0 0 -0.0431,-0.205671 31.144195,23.340031 0 0 0 -0.0452,-0.20619 31.144195,23.340031 0 0 0 -0.0479,-0.205155 31.144195,23.340031 0 0 0 -0.0499,-0.205156 31.144195,23.340031 0 0 0 -0.0527,-0.204639 31.144195,23.340031 0 0 0 -0.0554,-0.204639 31.144195,23.340031 0 0 0 -0.0575,-0.204121 31.144195,23.340031 0 0 0 -0.0595,-0.203605 31.144195,23.340031 0 0 0 -0.0629,-0.203089 31.144195,23.340031 0 0 0 -0.0643,-0.203089 31.144195,23.340031 0 0 0 -0.0677,-0.202054 31.144195,23.340031 0 0 0 -0.0691,-0.202054 31.144195,23.340031 0 0 0 -0.0725,-0.201539 31.144195,23.340031 0 0 0 -0.0739,-0.201022 31.144195,23.340031 0 0 0 -0.0773,-0.199986 31.144195,23.340031 0 0 0 -0.0793,-0.199988 31.144195,23.340031 0 0 0 -0.0814,-0.199472 31.144195,23.340031 0 0 0 -0.0841,-0.198953 31.144195,23.340031 0 0 0 -0.0862,-0.198437 31.144195,23.340031 0 0 0 -0.0882,-0.197406 31.144195,23.340031 0 0 0 -0.0917,-0.196887 31.144195,23.340031 0 0 0 -0.093,-0.196887 31.144195,23.340031 0 0 0 -0.0958,-0.195337 31.144195,23.340031 0 0 0 -0.0978,-0.195336 31.144195,23.340031 0 0 0 -0.10055,-0.194821 31.144195,23.340031 0 0 0 -0.1026,-0.193786 31.144195,23.340031 0 0 0 -0.10534,-0.192754 31.144195,23.340031 0 0 0 -0.10739,-0.192752 31.144195,23.340031 0 0 0 -0.10944,-0.19172 31.144195,23.340031 0 0 0 -0.11149,-0.190688 31.144195,23.340031 0 0 0 -0.11423,-0.190166 31.144195,23.340031 0 0 0 -0.11629,-0.189654 31.144195,23.340031 0 0 0 -0.11902,-0.188618 31.144195,23.340031 0 0 0 -0.12107,-0.187587 31.144195,23.340031 0 0 0 -0.12312,-0.187069 31.144195,23.340031 0 0 0 -0.12518,-0.186033 31.144195,23.340031 0 0 0 -0.12722,-0.185518 31.144195,23.340031 0 0 0 -0.12996,-0.184486 31.144195,23.340031 0 0 0 -0.13202,-0.183452 31.144195,23.340031 0 0 0 -0.13407,-0.182935 31.144195,23.340031 0 0 0 -0.1368,-0.181901 31.144195,23.340031 0 0 0 -0.13817,-0.180867 31.144195,23.340031 0 0 0 -0.10944,-0.140044 h -0.24693 c -0.73798,0 -1.33247,0.449122 -1.33247,1.006658 v 7.475513 c 0,0.557533 0.59449,1.006139 1.33247,1.006139 z"
       inkscape:export-filename="C:\Users\Loula\Desktop\prof sport.png"
       inkscape:export-xdpi="387"
       inkscape:export-ydpi="387" />
    <ellipse
       style="fill:#fbf2d6;fill-opacity:1;stroke:none;stroke-width:3;stop-color:#000000"
       id="path960-4"
       cx="126.28487"
       cy="46.43808"
       rx="6.9490075"
       ry="6.11379"
       inkscape:export-xdpi="387"
       inkscape:export-ydpi="387"
       inkscape:export-filename="C:\Users\Loula\Desktop\prof sport.png" />
    <rect
       style="fill:#80ea96;fill-opacity:1;stroke-width:1;stop-color:#000000"
       id="rect928"
       width="6.0135641"
       height="14.165285"
       x="97.419739"
       y="17.506153"
       rx="1.0063797"
       inkscape:export-filename="C:\Users\Loula\Desktop\prof sport.png"
       inkscape:export-xdpi="387"
       inkscape:export-ydpi="387" />
  </g>
</svg>
