<?xml version="1.0" encoding="UTF-8" standalone="no"?>
<svg
   xmlns:dc="http://purl.org/dc/elements/1.1/"
   xmlns:cc="http://creativecommons.org/ns#"
   xmlns:rdf="http://www.w3.org/1999/02/22-rdf-syntax-ns#"
   xmlns:svg="http://www.w3.org/2000/svg"
   xmlns="http://www.w3.org/2000/svg"
   xmlns:sodipodi="http://sodipodi.sourceforge.net/DTD/sodipodi-0.dtd"
   xmlns:inkscape="http://www.inkscape.org/namespaces/inkscape"
   width="210mm"
   height="297mm"
   viewBox="0 0 210 297"
   version="1.1"
   id="svg8"
   inkscape:version="1.0.1 (3bc2e813f5, 2020-09-07)"
   sodipodi:docname="prof 1.svg"
   inkscape:export-filename="C:\Users\Loula\Desktop\image.png"
   inkscape:export-xdpi="387.07959"
   inkscape:export-ydpi="387.07959">
  <defs
     id="defs2" />
  <sodipodi:namedview
     id="base"
     pagecolor="#ffffff"
     bordercolor="#666666"
     borderopacity="1.0"
     inkscape:pageopacity="0.0"
     inkscape:pageshadow="2"
     inkscape:zoom="1.979899"
     inkscape:cx="295.43353"
     inkscape:cy="241.49116"
     inkscape:document-units="mm"
     inkscape:current-layer="layer1"
     inkscape:document-rotation="0"
     showgrid="false"
     inkscape:window-width="1920"
     inkscape:window-height="986"
     inkscape:window-x="-11"
     inkscape:window-y="-11"
     inkscape:window-maximized="1" />
  <metadata
     id="metadata5">
    <rdf:RDF>
      <cc:Work
         rdf:about="">
        <dc:format>image/svg+xml</dc:format>
        <dc:type
           rdf:resource="http://purl.org/dc/dcmitype/StillImage" />
        <dc:title></dc:title>
      </cc:Work>
    </rdf:RDF>
  </metadata>
  <g
     inkscape:label="Calque 1"
     inkscape:groupmode="layer"
     id="layer1">
    <path
       id="path902"
       style="fill:#542a36;fill-opacity:1;stroke:none;stroke-width:2.75335;stop-color:#000000"
       d="m 97.44738,62.933037 h 7.51148 c 2.47375,0 3.629,1.800158 4.46524,3.76119 l 12.47321,29.250435 c 0.83624,1.961028 -0.1022,4.670738 -2.57535,4.716328 l -34.536782,0.63676 c -2.473151,0.0456 -4.084814,-2.254077 -3.331312,-4.238758 L 92.98214,66.694227 c 0.753504,-1.984682 1.991497,-3.76119 4.46524,-3.76119 z"
       sodipodi:nodetypes="sssssssss"
       inkscape:export-filename="C:\Users\Loula\main.png"
       inkscape:export-xdpi="387.07959"
       inkscape:export-ydpi="387.07959" />
    <ellipse
       style="fill:#fbf2d6;fill-opacity:1;stroke:none;stroke-width:2.54884;stop-color:#000000"
       id="path1194"
       cx="101.91032"
       cy="67.614723"
       rx="4.4629464"
       ry="4.681685"
       inkscape:export-xdpi="387"
       inkscape:export-ydpi="387" />
    <path
       id="path995-7-7-3"
       style="fill:#c51820;fill-opacity:1;stroke:none;stroke-width:0.264583px;stroke-linecap:butt;stroke-linejoin:miter;stroke-opacity:1"
       d="m 111.65576,59.178925 c 0,0 -3.78675,1.069623 -4.21906,2.678349 -0.7838,2.91674 4.93466,10.840694 3.60402,13.551995 -5.32504,10.850384 -2.55808,14.856307 -1.8975,16.169957 0,0 0.37981,-5.849089 6.05353,-11.840205 5.67372,-5.991116 7.30889,-9.359346 3.5393,-12.947127 -3.7696,-3.587779 -7.08029,-7.612969 -7.08029,-7.612969 z"
       sodipodi:nodetypes="ccscssc"
       inkscape:export-xdpi="387"
       inkscape:export-ydpi="387" />
    <path
       style="fill:#c51820;fill-opacity:1;stroke:none;stroke-width:0.264583px;stroke-linecap:butt;stroke-linejoin:miter;stroke-opacity:1"
       d="m 122.27383,54.731902 c 0,0 11.62477,12.408183 8.33443,19.885479 -3.29034,7.477295 -2.71394,8.042615 1.1048,9.07699 0,0 -8.25081,6.454002 -8.824,-5.060403 -0.57319,-11.514404 -9.9452,-16.632054 -14.28934,-17.004383 -4.34412,-0.372333 13.67411,-6.897683 13.67411,-6.897683 z"
       id="path993-1-6"
       inkscape:export-xdpi="387"
       inkscape:export-ydpi="387" />
    <path
       id="path995-7-7"
       style="fill:#c51820;fill-opacity:1;stroke:none;stroke-width:0.264583px;stroke-linecap:butt;stroke-linejoin:miter;stroke-opacity:1"
       d="m 92.552194,55.844192 c 0,0 3.068334,2.463518 2.838058,4.113327 -0.417509,2.99122 -8.776395,8.052722 -8.610269,11.06837 0.664812,12.068346 -3.446864,14.675585 -4.567995,15.626945 0,0 1.934581,-5.532943 -0.948899,-13.264058 -2.883479,-7.731116 -3.073407,-11.470456 1.797974,-13.301205 4.871388,-1.830742 9.491131,-4.243379 9.491131,-4.243379 z"
       sodipodi:nodetypes="ccscssc"
       inkscape:export-xdpi="387"
       inkscape:export-ydpi="387" />
    <path
       id="path995-7-7-0"
       style="fill:#c51820;fill-opacity:1;stroke:none;stroke-width:0.264583px;stroke-linecap:butt;stroke-linejoin:miter;stroke-opacity:1"
       d="m 81.755788,54.619351 c 0,0 -3.068334,2.463518 -2.838058,4.113327 0.417509,2.99122 8.776395,8.052722 8.610269,11.06837 -0.664811,12.068346 3.446865,14.675585 4.567995,15.626945 0,0 -1.934581,-5.532943 0.948899,-13.264058 2.883479,-7.731116 3.073408,-11.470456 -1.797973,-13.301205 -4.871389,-1.830742 -9.491132,-4.243379 -9.491132,-4.243379 z"
       sodipodi:nodetypes="ccscssc"
       inkscape:export-xdpi="387"
       inkscape:export-ydpi="387" />
    <path
       style="fill:#c51820;fill-opacity:1;stroke:none;stroke-width:0.264583px;stroke-linecap:butt;stroke-linejoin:miter;stroke-opacity:1"
       d="m 77.68134,23.005814 c 0,0 -14.019257,20.317489 -9.167804,32.629154 2.994972,7.600422 5.305463,6.625797 2.072331,8.906053 0,0 9.962804,3.236134 6.55586,-7.777621 C 73.734783,45.749646 80.785858,37.730469 84.739436,35.892151 88.692994,34.053836 77.68134,23.005814 77.68134,23.005814 Z"
       id="path993-1-2-8"
       sodipodi:nodetypes="cscssc"
       inkscape:export-xdpi="387"
       inkscape:export-ydpi="387" />
    <path
       style="fill:#c51820;fill-opacity:1;stroke:none;stroke-width:0.264583px;stroke-linecap:butt;stroke-linejoin:miter;stroke-opacity:1"
       d="m 78.148048,51.046634 c 0,0 -11.62477,12.408183 -8.33443,19.885479 3.29034,7.477295 2.71394,8.042615 -1.1048,9.07699 0,0 8.25081,6.454002 8.824,-5.060403 0.57319,-11.514404 9.945199,-16.632054 14.28934,-17.004383 4.34412,-0.372333 -13.67411,-6.897683 -13.67411,-6.897683 z"
       id="path993-1-2"
       inkscape:export-xdpi="387"
       inkscape:export-ydpi="387" />
    <ellipse
       style="fill:#fbf2d6;fill-opacity:1;stroke:none;stroke-width:3;stop-color:#000000"
       id="path960"
       cx="75.971367"
       cy="46.404671"
       rx="6.9490075"
       ry="6.11379"
       inkscape:export-xdpi="387"
       inkscape:export-ydpi="387" />
    <path
       style="fill:#c51820;fill-opacity:1;stroke:none;stroke-width:0.317744px;stroke-linecap:butt;stroke-linejoin:miter;stroke-opacity:1"
       d="m 128.99013,23.646458 c 0,0 10.64939,23.728825 4.24601,30.631109 -6.40338,6.902281 -5.87285,7.720082 -1.50332,10.207786 0,0 -12.18032,4.017067 -9.25482,-8.634713 2.92547,-12.651782 -6.98516,-21.544922 -12.20947,-23.505442 -5.22429,-1.960517 18.7216,-8.69874 18.7216,-8.69874 z"
       id="path993-1-6-5"
       sodipodi:nodetypes="csccsc"
       inkscape:export-xdpi="387"
       inkscape:export-ydpi="387" />
    <ellipse
       style="fill:#fbf2d6;stroke:none;stroke-width:3;stop-color:#000000;fill-opacity:1"
       id="path833"
       cx="101.39211"
       cy="43.183777"
       rx="23.529018"
       ry="23.340031"
       inkscape:export-filename="C:\Users\Loula\main.png"
       inkscape:export-xdpi="387.07959"
       inkscape:export-ydpi="387.07959" />
    <ellipse
       style="fill:#63452c;fill-opacity:1;stroke:none;stroke-width:3;stop-color:#000000"
       id="path880"
       cx="89.107887"
       cy="47.152527"
       rx="4.2522321"
       ry="3.8742559"
       inkscape:export-filename="C:\Users\Loula\main.png"
       inkscape:export-xdpi="387.07959"
       inkscape:export-ydpi="387.07959" />
    <ellipse
       style="fill:#fbf2d6;fill-opacity:1;stroke:none;stroke-width:3;stop-color:#000000"
       id="path960-4"
       cx="126.01759"
       cy="47.908062"
       rx="6.9490075"
       ry="6.11379"
       inkscape:export-xdpi="387"
       inkscape:export-ydpi="387" />
    <ellipse
       style="fill:#63452c;fill-opacity:1;stroke:none;stroke-width:3;stop-color:#000000"
       id="path880-3"
       cx="113.39286"
       cy="47.813992"
       rx="4.2522321"
       ry="3.8742561"
       inkscape:export-filename="C:\Users\Loula\main.png"
       inkscape:export-xdpi="387.07959"
       inkscape:export-ydpi="387.07959" />
    <path
       sodipodi:type="star"
       style="fill:#f08062;fill-opacity:1;stroke:none;stroke-width:3;stop-color:#000000"
       id="path897"
       sodipodi:sides="3"
       sodipodi:cx="100.54167"
       sodipodi:cy="57.074406"
       sodipodi:r1="4.2259021"
       sodipodi:r2="2.112951"
       sodipodi:arg1="0.46364761"
       sodipodi:arg2="1.5108452"
       inkscape:flatsided="true"
       inkscape:rounded="0.08"
       inkscape:randomized="0"
       d="m 104.32143,58.964287 c -0.26187,0.523739 -6.983687,0.927203 -7.306324,0.438548 -0.322637,-0.488655 2.688864,-6.511656 3.273374,-6.546739 0.5845,-0.03508 4.29482,5.584451 4.03295,6.108191 z"
       inkscape:transform-center-x="1.2607329"
       inkscape:transform-center-y="5.6020294"
       inkscape:export-filename="C:\Users\Loula\main.png"
       inkscape:export-xdpi="387.07959"
       inkscape:export-ydpi="387.07959"
       transform="rotate(3.3119919,98.540428,63.712272)" />
    <ellipse
       style="fill:#a8141c;fill-opacity:1;stroke:none;stroke-width:3;stop-color:#000000"
       id="path1132"
       cx="112.92038"
       cy="39.309525"
       rx="6.0476193"
       ry="1.7008928"
       inkscape:export-xdpi="387"
       inkscape:export-ydpi="387" />
    <path
       style="fill:#c51820;fill-opacity:1;stroke:none;stroke-width:0.264583px;stroke-linecap:butt;stroke-linejoin:miter;stroke-opacity:1"
       d="m 99.21875,18.615327 c 0,0 -5.29167,16.158482 0.85045,21.544642 6.14211,5.386162 5.85863,6.142114 2.83482,8.693454 0,0 10.20536,2.362351 5.85863,-8.315477 -4.34673,-10.677827 1.98437,-19.276785 5.76414,-21.450148 3.77976,-2.173363 -15.30804,-0.472471 -15.30804,-0.472471 z"
       id="path993"
       inkscape:export-xdpi="387"
       inkscape:export-ydpi="387" />
    <ellipse
       style="fill:#a8141c;fill-opacity:1;stroke:none;stroke-width:3;stop-color:#000000"
       id="path1132-5"
       cx="91.092262"
       cy="38.55357"
       rx="6.0476193"
       ry="1.7008928"
       inkscape:export-xdpi="387"
       inkscape:export-ydpi="387" />
    <path
       id="path995"
       style="fill:#c51820;fill-opacity:1;stroke:none;stroke-width:0.999999px;stroke-linecap:butt;stroke-linejoin:miter;stroke-opacity:1"
       d="m 354.64258,65.357422 c 0,0 -14.86841,-0.333467 -18.21401,5 -6.06581,9.669959 5.81135,44.641208 -2.00251,52.962608 -31.27039,33.30151 -25.71386,50.84365 -24.78348,56.32255 0,0 7.85714,-20.71318 35,-36.07031 27.14285,-15.35714 36.78543,-25.71457 27.14258,-42.85743 -9.64285,-17.142856 -17.14258,-35.357418 -17.14258,-35.357418 z"
       transform="scale(0.26458333)"
       sodipodi:nodetypes="ccscssc"
       inkscape:export-xdpi="387"
       inkscape:export-ydpi="387" />
    <path
       style="fill:#c51820;fill-opacity:1;stroke:none;stroke-width:0.264583px;stroke-linecap:butt;stroke-linejoin:miter;stroke-opacity:1"
       d="m 118.23874,20.317563 c 0,0 11.62477,12.408183 8.33443,19.885479 -3.29034,7.477295 -2.71394,8.042614 1.1048,9.07699 0,0 -8.25081,6.454002 -8.824,-5.060403 -0.57319,-11.514404 -9.9452,-16.632054 -14.28934,-17.004383 -4.34412,-0.372333 13.67411,-6.897683 13.67411,-6.897683 z"
       id="path993-1"
       inkscape:export-xdpi="387"
       inkscape:export-ydpi="387" />
    <path
       sodipodi:type="star"
       style="fill:#f5c211;fill-opacity:1;stroke:none;stroke-width:0.957258;stop-color:#000000"
       id="path1115"
       sodipodi:sides="13"
       sodipodi:cx="76.20889"
       sodipodi:cy="53.432674"
       sodipodi:r1="0.029939895"
       sodipodi:r2="2.9939895"
       sodipodi:arg1="1.0891326"
       sodipodi:arg2="1.3307936"
       inkscape:flatsided="false"
       inkscape:rounded="-2.55"
       inkscape:randomized="0"
       d="m 76.222763,53.459208 c 6.700366,-3.502465 -6.646044,4.678827 0.697817,2.88164 7.343861,-1.797187 -8.272293,-2.890771 -0.711737,-2.878234 7.560557,0.01254 -8.059139,1.054325 -0.721278,2.875858 7.33786,1.821532 -5.981344,-6.403977 0.70737,-2.87931 6.688714,3.524667 -7.625982,-2.81171 -1.975138,2.21125 5.650844,5.022961 -2.32014,-8.450109 1.964428,-2.220771 4.284567,6.229338 -5.445806,-6.033616 -2.776518,1.040073 2.669288,7.073689 1.87258,-8.560423 2.771458,-1.05348 0.898879,7.506943 -2.01806,-7.873294 -2.94183,-0.369373 -0.92377,7.50392 5.636314,-6.709647 2.943581,0.35515 -2.692733,7.064798 1.871999,-7.909294 -2.433205,-1.6942 -4.305203,6.215094 8.108837,-3.321772 2.441365,1.68242 -5.667471,5.004192 5.333205,-6.133371 -1.367161,-2.630906 -6.700367,3.502465 8.723722,0.827081 1.379861,2.624268 -7.343861,1.797186 7.572638,-2.952367 0.01208,-2.964904 -7.560557,-0.01254 7.340108,4.78646 0.0022,2.964927 -7.33786,-1.821532 8.077271,0.90499 1.388557,-2.619677 -6.688714,-3.524667 4.274965,7.649319 -1.375879,2.626358 -5.650844,-5.022961 6.731499,4.555024 2.446931,-1.674314 -4.284568,-6.229338 0.230477,8.75981 -2.43881,1.686121 -2.669288,-7.073689 3.843621,7.161557 2.944742,-0.345386 -0.898879,-7.506943 -3.866809,7.863535 -2.943039,0.359615 0.923771,-7.503921 0.07522,8.127463 2.767949,1.062665 2.692733,-7.064797 -7.078256,5.165819 -2.773052,-1.049275 4.305203,-6.215094 -3.71042,7.231466 1.957051,2.227274 5.667472,-5.004192 -8.66816,1.284676 -1.967793,-2.217789 z"
       inkscape:export-xdpi="387"
       inkscape:export-ydpi="387" />
    <path
       id="path995-7"
       style="fill:#c51820;fill-opacity:1;stroke:none;stroke-width:0.264583px;stroke-linecap:butt;stroke-linejoin:miter;stroke-opacity:1"
       d="m 87.120843,24.725466 c 0,0 3.068334,2.463518 2.838058,4.113327 -0.417509,2.99122 -8.776395,8.052722 -8.610269,11.06837 0.664812,12.068346 -3.446864,14.675585 -4.567995,15.626943 0,0 1.934581,-5.532941 -0.948899,-13.264056 -2.883479,-7.731116 -3.073407,-11.470456 1.797974,-13.301205 4.871388,-1.830742 9.491131,-4.243379 9.491131,-4.243379 z"
       sodipodi:nodetypes="ccscssc"
       inkscape:export-xdpi="387"
       inkscape:export-ydpi="387" />
    <path
       id="path995-1"
       style="fill:#c51820;fill-opacity:1;stroke:none;stroke-width:0.264583px;stroke-linecap:butt;stroke-linejoin:miter;stroke-opacity:1"
       d="m 112.28276,18.332464 c 0,0 -3.93393,-0.08823 -4.81912,1.322916 -1.60491,2.55851 1.53759,11.81132 -0.52983,14.013024 -8.273633,8.811025 -6.80346,13.452383 -6.5573,14.902009 0,0 2.07887,-5.480363 9.26042,-9.543604 7.18155,-4.063243 9.73281,-6.803646 7.18147,-11.339362 -2.55133,-4.535714 -4.53564,-9.354983 -4.53564,-9.354983 z"
       sodipodi:nodetypes="ccscssc"
       inkscape:export-xdpi="387"
       inkscape:export-ydpi="387" />
    <path
       id="path995-7-4"
       style="fill:#c51820;fill-opacity:1;stroke:none;stroke-width:0.397207px;stroke-linecap:butt;stroke-linejoin:miter;stroke-opacity:1"
       d="m 99.342544,13.79434 c 0,0 5.218666,3.264446 4.827006,5.450634 -0.71011,3.963712 -14.927007,10.670787 -14.644457,14.666869 1.13072,15.991953 -5.862471,19.446846 -7.769305,20.707508 0,0 3.29036,-7.331789 -1.6139,-17.57641 -4.904258,-10.244622 -5.22729,-15.199679 3.058017,-17.625633 8.28532,-2.425945 16.142639,-5.622968 16.142639,-5.622968 z"
       sodipodi:nodetypes="ccscssc"
       inkscape:export-xdpi="387"
       inkscape:export-ydpi="387" />
    <path
       sodipodi:type="star"
       style="fill:#f5c211;fill-opacity:1;stroke:none;stroke-width:0.957257;stop-color:#000000"
       id="path1115-1"
       sodipodi:sides="13"
       sodipodi:cx="123.88195"
       sodipodi:cy="54.2215"
       sodipodi:r1="0.029939895"
       sodipodi:r2="2.9939897"
       sodipodi:arg1="1.0891326"
       sodipodi:arg2="1.3307936"
       inkscape:flatsided="false"
       inkscape:rounded="-2.55"
       inkscape:randomized="0"
       d="m 123.89582,54.248034 c 6.70037,-3.502465 -6.64604,4.678827 0.69782,2.88164 7.34386,-1.797187 -8.2723,-2.890771 -0.71174,-2.878234 7.56056,0.01254 -8.05914,1.054326 -0.72128,2.875858 7.33786,1.821533 -5.98134,-6.403978 0.70737,-2.87931 6.68872,3.524667 -7.62598,-2.81171 -1.97514,2.211251 5.65085,5.02296 -2.32014,-8.45011 1.96443,-2.220772 4.28457,6.229339 -5.4458,-6.033616 -2.77652,1.040073 2.66929,7.07369 1.87258,-8.560423 2.77146,-1.05348 0.89888,7.506943 -2.01806,-7.873294 -2.94183,-0.369373 -0.92377,7.503921 5.63632,-6.709648 2.94358,0.35515 -2.69273,7.064798 1.872,-7.909295 -2.4332,-1.6942 -4.3052,6.215095 8.10884,-3.321772 2.44136,1.68242 -5.66747,5.004193 5.33321,-6.133372 -1.36716,-2.630906 -6.70037,3.502465 8.72373,0.827081 1.37986,2.624268 -7.34386,1.797186 7.57264,-2.952367 0.0121,-2.964904 -7.56056,-0.01254 7.3401,4.78646 0.002,2.964927 -7.33786,-1.821532 8.07728,0.90499 1.38856,-2.619677 -6.68871,-3.524667 4.27497,7.649319 -1.37588,2.626358 -5.65084,-5.022961 6.7315,4.555024 2.44693,-1.674314 -4.28457,-6.229339 0.23048,8.759811 -2.43881,1.686121 -2.66929,-7.07369 3.84362,7.161557 2.94474,-0.345386 -0.89887,-7.506944 -3.8668,7.863536 -2.94303,0.359615 0.92377,-7.503921 0.0752,8.127464 2.76795,1.062665 2.69273,-7.064798 -7.07826,5.16582 -2.77306,-1.049275 4.30521,-6.215095 -3.71042,7.231467 1.95705,2.227274 5.66748,-5.004193 -8.66816,1.284676 -1.96779,-2.217789 z"
       inkscape:export-xdpi="387"
       inkscape:export-ydpi="387" />
    <path
       id="path995-7-4-2"
       style="fill:#c51820;fill-opacity:1;stroke:none;stroke-width:0.397206px;stroke-linecap:butt;stroke-linejoin:miter;stroke-opacity:1"
       d="m 106.84347,13.983327 c 0,0 -5.21867,3.264446 -4.82701,5.450634 0.71011,3.963712 14.92701,10.670787 14.64446,14.666869 -1.13072,15.991955 5.86247,19.446847 7.76931,20.70751 0,0 -3.29036,-7.33179 1.6139,-17.576412 4.90426,-10.244622 5.22729,-15.199679 -3.05802,-17.625633 -8.28532,-2.425945 -16.14264,-5.622968 -16.14264,-5.622968 z"
       sodipodi:nodetypes="ccscssc"
       inkscape:export-xdpi="387"
       inkscape:export-ydpi="387" />
  </g>
</svg>
