<?xml version="1.0" encoding="UTF-8" standalone="no"?>
<svg
   xmlns:dc="http://purl.org/dc/elements/1.1/"
   xmlns:cc="http://creativecommons.org/ns#"
   xmlns:rdf="http://www.w3.org/1999/02/22-rdf-syntax-ns#"
   xmlns:svg="http://www.w3.org/2000/svg"
   xmlns="http://www.w3.org/2000/svg"
   xmlns:sodipodi="http://sodipodi.sourceforge.net/DTD/sodipodi-0.dtd"
   xmlns:inkscape="http://www.inkscape.org/namespaces/inkscape"
   width="210mm"
   height="297mm"
   viewBox="0 0 210 297"
   version="1.1"
   id="svg8"
   inkscape:version="1.0.1 (3bc2e813f5, 2020-09-07)"
   sodipodi:docname="prof math.svg"
   inkscape:export-filename="C:\Users\Loula\Desktop\image.png"
   inkscape:export-xdpi="387.07959"
   inkscape:export-ydpi="387.07959">
  <defs
     id="defs2" />
  <sodipodi:namedview
     id="base"
     pagecolor="#ffffff"
     bordercolor="#666666"
     borderopacity="1.0"
     inkscape:pageopacity="0.0"
     inkscape:pageshadow="2"
     inkscape:zoom="1.979899"
     inkscape:cx="313.08427"
     inkscape:cy="244.30576"
     inkscape:document-units="mm"
     inkscape:current-layer="layer1"
     inkscape:document-rotation="0"
     showgrid="false"
     inkscape:window-width="1920"
     inkscape:window-height="986"
     inkscape:window-x="-11"
     inkscape:window-y="-11"
     inkscape:window-maximized="1" />
  <metadata
     id="metadata5">
    <rdf:RDF>
      <cc:Work
         rdf:about="">
        <dc:format>image/svg+xml</dc:format>
        <dc:type
           rdf:resource="http://purl.org/dc/dcmitype/StillImage" />
        <dc:title></dc:title>
      </cc:Work>
    </rdf:RDF>
  </metadata>
  <g
     inkscape:label="Calque 1"
     inkscape:groupmode="layer"
     id="layer1">
    <rect
       style="fill:#f2f1f8;fill-opacity:1;stroke:none;stroke-width:1;stroke-miterlimit:4;stroke-dasharray:none;stroke-opacity:1;stop-color:#000000"
       id="rect973-0"
       width="14.29892"
       height="30.869631"
       x="107.91008"
       y="67.95327"
       rx="3.5454431"
       inkscape:export-xdpi="387"
       inkscape:export-ydpi="387" />
    <rect
       style="fill:#f2f1f8;fill-opacity:1;stroke:none;stroke-width:1;stroke-miterlimit:4;stroke-dasharray:none;stroke-opacity:1;stop-color:#000000"
       id="rect973"
       width="14.298919"
       height="30.869631"
       x="81.517204"
       y="68.688263"
       rx="3.5454431"
       inkscape:export-xdpi="387"
       inkscape:export-ydpi="387" />
    <path
       id="path902"
       style="fill:#fcfbff;fill-opacity:1;stroke:none;stroke-width:2.62059;stop-color:#000000"
       d="m 97.44738,66.543629 h 7.51148 c 2.47375,0 3.629,1.630744 4.46524,3.407222 l 12.47321,26.497657 c 0.83624,1.776474 -0.1022,4.231172 -2.57535,4.272472 l -34.536782,0.57683 c -2.473151,0.0413 -4.084814,-2.041941 -3.331312,-3.839843 L 92.98214,69.950851 c 0.753504,-1.797903 1.991497,-3.407222 4.46524,-3.407222 z"
       sodipodi:nodetypes="sssssssss"
       inkscape:export-filename="C:\Users\Loula\main.png"
       inkscape:export-xdpi="387.07959"
       inkscape:export-ydpi="387.07959" />
    <path
       id="path990"
       style="fill:#fbf2d6;fill-opacity:1;stroke:none;stroke-width:1;stroke-miterlimit:4;stroke-dasharray:none;stroke-opacity:1;stop-color:#000000"
       d="m 105.97236,68.282898 a 4.5297632,5.6171284 0 0 1 -4.52976,5.617128 4.5297632,5.6171284 0 0 1 -4.529767,-5.617128 4.5297632,5.6171284 0 0 1 4.529767,-5.617128 4.5297632,5.6171284 0 0 1 4.52976,5.617128 z"
       inkscape:export-xdpi="387"
       inkscape:export-ydpi="387" />
    <path
       id="path1001"
       style="fill:#f2f1f8;fill-opacity:1;stroke:none;stroke-width:4.34634;stroke-miterlimit:4;stroke-dasharray:none;stroke-opacity:1;stop-color:#000000"
       d="M 381.6543 279.19531 C 381.51824 281.09612 381.33203 282.80792 381.33203 285.13086 L 381.33203 381.83984 L 384.86719 381.78125 L 384.86719 285.13086 C 384.86719 282.83315 384.68214 281.14594 384.54883 279.25977 A 17.120365 21.230092 0 0 1 384.39844 279.27148 A 17.120365 21.230092 0 0 1 384.07227 279.29102 A 17.120365 21.230092 0 0 1 383.74414 279.30273 A 17.120365 21.230092 0 0 1 383.41602 279.30664 A 17.120365 21.230092 0 0 1 383.4043 279.30664 A 17.120365 21.230092 0 0 1 383.07812 279.30273 A 17.120365 21.230092 0 0 1 382.75 279.29102 A 17.120365 21.230092 0 0 1 382.42188 279.27148 A 17.120365 21.230092 0 0 1 382.0957 279.24414 A 17.120365 21.230092 0 0 1 381.76758 279.20898 A 17.120365 21.230092 0 0 1 381.6543 279.19531 z "
       transform="scale(0.26458333)"
       inkscape:export-xdpi="387"
       inkscape:export-ydpi="387" />
    <path
       id="path891"
       style="fill:#5a285a;stroke-width:11.3386;stop-color:#000000;fill-opacity:1"
       d="M 299.76367 183.84766 A 18.435284 18.182744 0 0 0 281.32812 202.03125 A 18.435284 18.182744 0 0 0 298.00781 220.12891 A 11.616754 7.323606 0 0 0 297.99414 220.46484 A 11.616754 7.323606 0 0 0 309.61133 227.78906 A 11.616754 7.323606 0 0 0 321.22852 220.46484 A 11.616754 7.323606 0 0 0 313.92773 213.66602 A 18.435284 18.182744 0 0 0 318.19727 202.03125 A 18.435284 18.182744 0 0 0 299.76367 183.84766 z "
       transform="scale(0.26458333)"
       inkscape:export-xdpi="387"
       inkscape:export-ydpi="387" />
    <ellipse
       style="fill:#fbf2d6;fill-opacity:1;stroke:none;stroke-width:3;stop-color:#000000"
       id="path960"
       cx="75.971367"
       cy="46.404671"
       rx="6.9490075"
       ry="6.11379"
       inkscape:export-xdpi="387"
       inkscape:export-ydpi="387" />
    <path
       id="path895"
       style="fill:#5a285a;stroke-width:11.3386;stop-color:#000000;fill-opacity:1"
       d="M 460.37695 194.95898 A 10.859139 11.111678 0 0 0 449.51758 206.07031 A 10.859139 11.111678 0 0 0 449.57422 207.18555 A 11.111678 11.869292 0 0 0 439.92188 218.95117 A 11.111678 11.869292 0 0 0 451.0332 230.82031 A 11.111678 11.869292 0 0 0 462.14453 218.95117 A 11.111678 11.869292 0 0 0 462.00195 217.05859 A 10.859139 11.111678 0 0 0 471.23633 206.07031 A 10.859139 11.111678 0 0 0 460.37695 194.95898 z "
       transform="scale(0.26458333)"
       inkscape:export-xdpi="387"
       inkscape:export-ydpi="387" />
    <ellipse
       style="fill:#fbf2d6;stroke:none;stroke-width:3;stop-color:#000000;fill-opacity:1"
       id="path833"
       cx="101.39211"
       cy="43.183777"
       rx="23.529018"
       ry="23.340031"
       inkscape:export-filename="C:\Users\Loula\main.png"
       inkscape:export-xdpi="387.07959"
       inkscape:export-ydpi="387.07959" />
    <ellipse
       style="fill:#986a44;fill-opacity:1;stroke:none;stroke-width:3;stop-color:#000000"
       id="path880"
       cx="89.107887"
       cy="47.152527"
       rx="4.2522321"
       ry="3.8742559"
       inkscape:export-filename="C:\Users\Loula\main.png"
       inkscape:export-xdpi="387.07959"
       inkscape:export-ydpi="387.07959" />
    <ellipse
       style="fill:#fbf2d6;fill-opacity:1;stroke:none;stroke-width:3;stop-color:#000000"
       id="path960-4"
       cx="126.01759"
       cy="47.908062"
       rx="6.9490075"
       ry="6.11379"
       inkscape:export-xdpi="387"
       inkscape:export-ydpi="387" />
    <ellipse
       style="fill:#986a44;fill-opacity:1;stroke:none;stroke-width:3;stop-color:#000000"
       id="path880-3"
       cx="113.39286"
       cy="47.813992"
       rx="4.2522321"
       ry="3.8742561"
       inkscape:export-filename="C:\Users\Loula\main.png"
       inkscape:export-xdpi="387.07959"
       inkscape:export-ydpi="387.07959" />
    <path
       sodipodi:type="star"
       style="fill:#f08062;fill-opacity:1;stroke:none;stroke-width:3;stop-color:#000000"
       id="path897"
       sodipodi:sides="3"
       sodipodi:cx="100.54167"
       sodipodi:cy="57.074406"
       sodipodi:r1="4.2259021"
       sodipodi:r2="2.112951"
       sodipodi:arg1="0.46364761"
       sodipodi:arg2="1.5108452"
       inkscape:flatsided="true"
       inkscape:rounded="0.08"
       inkscape:randomized="0"
       d="m 104.32143,58.964287 c -0.26187,0.523739 -6.983687,0.927203 -7.306324,0.438548 -0.322637,-0.488655 2.688864,-6.511656 3.273374,-6.546739 0.5845,-0.03508 4.29482,5.584451 4.03295,6.108191 z"
       inkscape:transform-center-x="1.2607376"
       inkscape:transform-center-y="5.2290715"
       inkscape:export-filename="C:\Users\Loula\main.png"
       inkscape:export-xdpi="387.07959"
       inkscape:export-ydpi="387.07959"
       transform="matrix(0.99832975,0.05392671,-0.05777298,0.93186548,3.84544,-1.2404431)" />
    <path
       id="path842"
       style="fill:#632c63;stroke-width:11.3386;stop-color:#000000;fill-opacity:1"
       d="M 401.04883 59.599609 A 19.950512 16.162441 0 0 0 382.89258 69.498047 A 19.445437 13.637059 0 0 0 364.41211 60.103516 A 19.445437 13.637059 0 0 0 344.98242 73.238281 A 27.274118 16.162441 0 0 0 344.46289 73.236328 A 27.274118 16.162441 0 0 0 317.92969 85.65625 A 28.536809 22.475895 0 0 0 310.36914 84.853516 A 28.536809 22.475895 0 0 0 281.83203 107.32812 A 28.536809 22.475895 0 0 0 287.80078 121.08398 A 18.940361 21.213203 0 0 0 279.8125 138.39062 A 18.940361 21.213203 0 0 0 293.28906 158.70117 A 10.606602 7.5761439 0 0 0 292.94336 160.61328 A 10.606602 7.5761439 0 0 0 295.41797 165.47461 A 5.8083772 6.3134532 0 0 0 294.45898 168.94727 A 5.8083772 6.3134532 0 0 0 300.26758 175.26172 A 5.8083772 6.3134532 0 0 0 306.07617 168.94727 A 5.8083772 6.3134532 0 0 0 306.00781 167.98438 A 10.606602 7.5761439 0 0 0 314.1582 160.61328 A 10.606602 7.5761439 0 0 0 310.5918 154.94922 A 18.940361 21.213203 0 0 0 317.69336 138.39062 A 18.940361 21.213203 0 0 0 315.89844 129.37891 A 28.536809 22.475895 0 0 0 332.4043 121.60938 A 13.889598 11.111678 0 0 0 342.69336 125.25977 A 13.889598 11.111678 0 0 0 348.37305 124.28516 A 12.626906 11.111678 0 0 0 360.11914 131.32031 A 12.626906 11.111678 0 0 0 372.74609 120.20898 A 12.626906 11.111678 0 0 0 372.74609 120.1875 A 7.0710678 8.0812203 0 0 0 376.56445 118.52148 A 10.354064 13.889598 0 0 0 383.60547 122.22852 A 10.354064 13.889598 0 0 0 393.88867 109.9668 A 15.909903 22.728431 0 0 0 408.35352 123.23828 A 15.909903 22.728431 0 0 0 422.05469 112.06445 A 7.8286825 9.091372 0 0 0 426.73438 114.13867 A 13.131983 12.121831 0 0 0 438.91211 121.72266 A 13.131983 12.121831 0 0 0 447.02734 119.13086 A 6.0609154 7.8286825 0 0 0 446.99219 119.95508 A 6.0609154 7.8286825 0 0 0 451.06836 127.35156 A 13.889598 18.940361 0 0 0 450.52734 132.58203 A 13.889598 18.940361 0 0 0 455.62891 147.24805 A 13.889598 14.647212 0 0 0 455.57812 148.49219 A 13.889598 14.647212 0 0 0 460.49414 159.66992 A 6.3134532 5.0507626 0 0 0 457.09375 164.15039 A 6.3134532 5.0507626 0 0 0 459.96875 168.38477 A 2.7779195 4.2931483 0 0 0 459.61914 170.46289 A 2.7779195 4.2931483 0 0 0 462.39648 174.75586 A 2.7779195 4.2931483 0 0 0 465.17578 170.46289 A 2.7779195 4.2931483 0 0 0 465.01562 169.0332 A 6.3134532 5.0507626 0 0 0 469.7207 164.15039 A 6.3134532 5.0507626 0 0 0 469.5918 163.13867 A 13.889598 14.647212 0 0 0 483.35742 148.49219 A 13.889598 14.647212 0 0 0 477.94336 136.88867 A 13.889598 18.940361 0 0 0 478.30664 132.58203 A 13.889598 18.940361 0 0 0 477.83789 127.70312 A 8.5862967 9.091372 0 0 0 482.34766 119.70312 A 8.5862967 9.091372 0 0 0 473.76172 110.61133 A 8.5862967 9.091372 0 0 0 472.38477 110.72852 A 17.930208 18.435284 0 0 0 476.28711 99.248047 A 17.930208 18.435284 0 0 0 458.35742 80.8125 A 17.930208 18.435284 0 0 0 457.37305 80.839844 A 22.728431 22.980971 0 0 0 435.375 63.638672 A 22.728431 22.980971 0 0 0 419.8457 69.841797 A 19.950512 16.162441 0 0 0 401.2832 59.599609 A 19.950512 16.162441 0 0 0 401.04883 59.599609 z "
       transform="scale(0.26458333)"
       inkscape:export-xdpi="387"
       inkscape:export-ydpi="387" />
    <rect
       style="fill:#5a285a;fill-opacity:1;stroke-width:3;stop-color:#000000"
       id="rect935"
       width="11.091685"
       height="5.8799295"
       x="97.424385"
       y="56.167919"
       rx="4.4652405"
       transform="rotate(-9.2293181)"
       inkscape:export-xdpi="387"
       inkscape:export-ydpi="387" />
    <rect
       style="fill:#5a285a;fill-opacity:1;stroke-width:3;stop-color:#000000"
       id="rect935-4"
       width="11.091685"
       height="5.8799295"
       x="-102.80871"
       y="23.225918"
       rx="4.4652405"
       transform="matrix(-0.98705433,-0.16038628,-0.16038628,0.98705433,0,0)"
       inkscape:export-xdpi="387"
       inkscape:export-ydpi="387" />
    <rect
       style="fill:#483f75;fill-opacity:1;stroke:#483f75;stroke-width:1;stroke-miterlimit:4;stroke-dasharray:none;stroke-opacity:1;stop-color:#000000"
       id="rect971"
       width="8.4945917"
       height="2.8903573"
       x="96.809601"
       y="45.218159"
       rx="3.5454431"
       inkscape:export-xdpi="387"
       inkscape:export-ydpi="387" />
    <rect
       style="fill:#e6fbff;fill-opacity:1;stroke-width:1;stop-color:#000000;stroke:#483f75;stroke-opacity:1;stroke-miterlimit:4;stroke-dasharray:none"
       id="rect954"
       width="18.25049"
       height="10.447373"
       x="81.102638"
       y="42.178204"
       rx="3.5454514"
       inkscape:export-xdpi="387"
       inkscape:export-ydpi="387" />
    <rect
       style="fill:#e6fbff;fill-opacity:1;stroke:#483f75;stroke-width:1;stroke-miterlimit:4;stroke-dasharray:none;stroke-opacity:1;stop-color:#000000"
       id="rect954-6"
       width="18.25049"
       height="10.447373"
       x="103.58858"
       y="42.245998"
       rx="3.5454514"
       inkscape:export-xdpi="387"
       inkscape:export-ydpi="387" />
    <rect
       style="fill:#f2f1f8;fill-opacity:1;stroke:none;stroke-width:1;stroke-miterlimit:4;stroke-dasharray:none;stroke-opacity:1;stop-color:#000000"
       id="rect1009"
       width="5.7462945"
       height="6.9490075"
       x="92.608894"
       y="75.236366"
       rx="1.0063802"
       inkscape:export-xdpi="387"
       inkscape:export-ydpi="387" />
  </g>
</svg>
